<?xml version="1.0" standalone="yes"?>
<svg xmlns="http://www.w3.org/2000/svg" width="820" height="1035">
<path style="fill:#000000; stroke:none;" d="M401 0L401.278 1.5L401.861 3.05554L402.25 4L402.778 5L403.222 6L403.778 7L404.222 8L404.778 9L405.222 10L405.75 11L406.611 13L407.389 15L408.194 17L408.611 18L409.306 20L409.861 22L410.139 23L410.361 24L410.639 25L410.861 26L411.139 27L411.611 29L411.944 31L412.056 32L412.389 34L412.611 35L412.917 37L412.972 38L413 40L413 42L413 43L413.056 44.9722L413.167 46.7778L413.222 47.6111L413.167 48.3889L413.056 50.0833L413 52L413 54L413 56L413 57L412.972 59L412.917 60L412.611 62L412.389 63L412.056 65L411.944 66L411.611 68L411.389 69L411.056 71L410.944 72L410.611 74L410.361 75L409.861 77L409.639 78L409.361 79L408.861 81L408.639 82L408.361 83L408.139 84L407.611 86L407.306 87L407 88L406.667 89L406 91L404 97L402 103L401.333 105L400.972 106L400.611 107L400.194 108L399.389 110L398.611 112L398.194 113L397.389 115L396.611 117L395.75 119L395.25 120L394.389 122L393.611 124L392.75 126L392.222 127L391.25 129L390.833 130L390.389 131L389.611 133L389.167 134L388.75 135L388.222 136L387.222 138L386.778 139L386.222 140L385.778 141L385.222 142L384.25 144L383.833 145L383.389 146L382.611 148L382.167 149L381.75 150L381.222 151L380.222 153L379.778 154L379.222 155L378.778 156L378.222 157L377.778 158L377.222 159L376.222 161L375.778 162L375.222 163L374.778 164L374.222 165L373.778 166L372.778 168L372.25 169L371.833 170L371.389 171L370.611 173L370.167 174L369.75 175L368.778 177L368.222 178L367.778 179L366.778 181L366.25 182L365.389 184L364.611 186L363.75 188L363.25 189L362.389 191L361.611 193L360.75 195L360.25 196L359.389 198L359.028 199L358.667 200L358.333 201L357.611 203L356.806 205L356.389 206L355.667 208L355.333 209L354.667 211L354 213L353.694 214L353.389 215L352.861 217L352.639 218L352.361 219L352.139 220L351.861 221L351.389 223L351.194 224L350.806 226L350.611 227L350.389 228L350.194 229L349.806 231L349.611 232L349.389 233L349.083 235L349.028 236L348.972 238L348.917 239L348.611 241L348.389 242L348.083 244L348.028 245L348 247L348 249L348 252L348 255L348 257L348.028 259L348.083 260L348.389 262L348.611 263L348.917 265L348.972 266L349.028 268L349.222 270L349.611 272L349.806 273L350.194 275L350.389 276L350.861 278L351.139 279L351.361 280L351.639 281L351.861 282L352.389 284L353 286L353.667 288L354.333 290L354.667 291L355.389 293L355.806 294L356.611 296L357.389 298L357.833 299L358.25 300L359.222 302L359.778 303L360.778 305L361.25 306L361.833 307L362.389 308L363.611 310L364.806 312L365.389 313L366.667 315L368 317L369.333 319L370 320L371.417 322L373 324L374.611 326L375.389 327L377.083 329L378.028 330L380 332L381 333L384 336L386 338L387 339L389 340.917L390.944 342.5L391.944 343.083L392.5 343.472L394 344L393.722 342.5L393.139 340.944L392.722 340L391.611 338L390.389 336L389.25 334L388.778 333L388.222 332L387.778 331L387.25 330L386.389 328L385.611 326L384.806 324L384.389 323L383.611 321L382.806 319L382.389 318L382.028 317L381.667 316L381.333 315L381 314L380.333 312L379.333 309L379 308L378.694 307L378.389 306L377.861 304L377.639 303L377.361 302L377.139 301L376.861 300L376.361 298L376.139 297L375.639 295L375.389 294L375.056 292L374.944 291L374.611 289L374.389 288L374.056 286L373.944 285L373.611 283L373.389 282L373.083 280L373.028 279L372.972 277L372.917 276L372.611 274L372.389 273L372.083 271L372.028 270L372 268L372 266L372 264L372 263L372 258L372 256L372.028 255L372.083 254L372.389 252L372.778 250L372.917 249L373.083 247L373.389 245L373.611 244L373.806 243L374.194 241L374.389 240L374.611 239L375 237L375.417 235L376 233L376.306 232L376.611 231L377.139 229L377.389 228L378 226L378.333 225L378.667 224L379.333 222L380.333 219L380.667 218L381.389 216L381.806 215L382.611 213L383.333 211L383.667 210L384.028 209L384.389 208L385.25 206L385.75 205L386.611 203L387.389 201L388.25 199L388.75 198L389.611 196L390.389 194L391.25 192L392.222 190L392.778 189L393.222 188L394.222 186L394.75 185L395.167 184L395.611 183L396.389 181L396.833 180L397.25 179L398.222 177L398.778 176L399.222 175L399.778 174L400.222 173L400.778 172L401.778 170L402.222 169L402.778 168L403.222 167L404.222 165L404.75 164L405.167 163L405.611 162L406.389 160L406.833 159L407.25 158L407.778 157L408.778 155L409.222 154L409.778 153L410.75 151L411.167 150L411.611 149L412.389 147L412.833 146L413.25 145L414.222 143L414.75 142L415.611 140L416.389 138L416.806 137L417.611 135L418.389 133L418.806 132L419.611 130L420.389 128L421.194 126L421.611 125L421.972 124L422.333 123L423 121L424.333 117L425.333 114L425.667 113L426.306 111L426.611 110L427.139 108L427.361 107L427.861 105L428.139 104L428.361 103L428.639 102L428.861 101L429.361 99L429.611 98L429.944 96L430.056 95L430.389 93L430.778 91L430.917 90L431.083 88L431.389 86L431.611 85L431.917 83L431.972 82L432 81L432 79L432 78L432 73L432 71L432 70L432 68L432 66L432 64L431.972 63L431.917 62L431.611 60L431.389 59L431.056 57L430.944 56L430.611 54L430.194 52L429.806 50L429.611 49L429.361 48L429.139 47L428.861 46L428.611 45L428 43L427.667 42L427 40L426.333 38L425.972 37L425.611 36L424.75 34L424.222 33L423.778 32L423.222 31L422.778 30L422.222 29L421.778 28L421.222 27L420.222 25L419.75 24L419.167 23L418.611 22L417.389 20L416.194 18L415.611 17L414.306 15L413.611 14L412.861 13L412.139 12L410.611 10L409 8L407.389 6L406.611 5L404.917 3.02783L403.056 1.30554L402.5 0.777832L401 0M0 67L0 75L0 76L0 81L0 82L0 90L0 94L0 99L0 100L0 103L0 105L0 107L0 115L0 123L0 127L0 128L0 132L0 133L0 137L0 141L0 147L0 151L0 154L0 156L0 158L0 166L2.05556 166L3.05556 166L61 166L61 162L61 157L61 156L61 153L61 149L61 148L61 147L61 144L61 138L61 133L61 130L61 127.5L61 126L62.5 126L95 126L96 126L98 126L118 126L141 126L142 126L152 126L166 126L179 126L187 126L188 126L195 126L205 126L219 126L224 126L229 126L230 126L240 126L279 126L285 126L377 126L377.5 124.5L377.833 123.944L378.25 122.944L378.778 122L379.75 120L380.611 118L381.389 116L382.25 114L382.75 113L383.611 111L384.389 109L385.194 107L385.611 106L386.389 104L387.194 102L387.611 101L387.972 100L388.333 99L389 97L389.667 95L390 94L390.611 92L391.139 90L391.389 89L391.694 88L392.306 86L392.611 85L393.139 83L393.361 82L393.611 81L393.806 80L394.194 78L394.611 76L394.806 75L395.194 73L395.389 72L395.611 71L395.917 69.0555L396 67L393.944 67L391 67L365 67L364 67L325 67L324 67L322 67L283 67L255 67L241 67L220 67L214 67L201 67L197 67L195 67L192 67L178 67L155 67L149 67L126 67L70 67L69 67L41 67L39 67L0 67M448 67L448 68.5L448 70.0555L448 71L447.972 73L447.917 74L447.611 76L447.389 77L447.083 79L447.028 80L447 81L446.972 83L446.917 84L446.611 86L446.222 88L446.083 89L445.917 91L445.778 92L445.389 94L445.194 95L444.806 97L444.611 98L444.389 99L444.194 100L443.806 102L443.611 103L443.139 105L442.861 106L442.639 107L442.361 108L441.861 110L441.611 111L441 113L440.333 115L439.667 117L439.333 118L438.611 120L438.194 121L437.472 122.944L437.083 124.5L437 126L445 126L448 126L451 126L459 126L475 126L480 126L490 126L504 126L520 126L528 126L534 126L535 126L545 126L579 126L589 126L594 126L604 126L608 126L610 126L616 126L617 126L621 126L623 126L627 126L641 126L643 126L648 126L655 126L665 126L670 126L673 126L679 126L684 126L685 126L693 126L699 126L703 126L705 126L713 126L718 126L741 126L742 126L746 126L750 126L756 126L756 134L756 137L756 139L756 142L756 143L756 145L756 148L756 153L756 154L756 170L756 175L756 178L756 180L756 181L756 195L756 197L756 199L756 204L756 206L756 208L756 213L756 214L756 223L756 225L756 231L756 232L756 248L756 252L756 253L756 255L756 257L756 261L756 263L756 264L756 266L756 273L756 278L756 284L756 287L756 288L756 292L756 299L756 300L756 309L756 317L756 321L756 326L756 328L756 334L756 340L756 345L756 348L756 352L756 356L756 362L756 367L756 369L756 370L756 374L756 380L756 385L756 393L756 394L756 400L756 406L756 407L756 411L756 413L756 421L756 422L756 431L756 436L756 438L756 443L756 475L756 476L756 495L756 497L756 498L756 515L757.5 515L759.056 514.889L761 514.278L762 513.667L763 512.889L765 511L766 510L769 507L782 494L792 484L798 478L800 476L805 471L810 466L812 464L813.972 462L814.889 461L816.278 459L816.889 457L817 455L817 454L817 452L817 447L817 435L817 422L817 421L817 416L817 415L817 399L817 396L817 392L817 390L817 382L817 366L817 361L817 359L817 356L817 349L817 347L817 337L817 335L817 327L817 325L817 323L817 320L817 314L817 313L817 308L817 303L817 295L817 279L817 271L817 261L817 253L817 249L817 244L817 242L817 237L817 232L817 224L817 223L817 219L817 218L817 208L817 192L817 188L817 186L817 178L817 170L817 169L817 167L817 165L817 161L817 157L817 154L817 151L817 148L817 146L817 138L817 134L817 130L817 129L817 124L817 122L817 118L817 114L817 108L817 100L817 96L817 94L817 91L817 87L817 71L817 67L814.944 67L813 67L812 67L780 67L779 67L771 67L763 67L762 67L760 67L757 67L751 67L747 67L746 67L740 67L739 67L735 67L733 67L730 67L728 67L726 67L725 67L693 67L692 67L691 67L683 67L679 67L673 67L665 67L664 67L663 67L659 67L653 67L645 67L641 67L639 67L636 67L635 67L632 67L630 67L627 67L623 67L615 67L607 67L606 67L595 67L593 67L585 67L581 67L579 67L576 67L572 67L570 67L567 67L565 67L562 67L554 67L550 67L547 67L539 67L535 67L529 67L525 67L519 67L503 67L499 67L497 67L494 67L481 67L479 67L476 67L448 67M427 126L427.333 127.5L427.639 128.056L428.083 129.056L429.111 131L429.583 132L430.389 134L431.167 136L431.556 137L431.833 138L432.139 139L432.361 140L432.861 142L433.139 143L433.361 144L433.611 145L433.917 147L433.972 148L434 150L434 152L434 155L434 158L434 159L433.972 161L433.917 162L433.611 164L433.389 165L433.194 166L432.806 168L432.611 169L432.139 171L431.861 172L431.639 173L431.361 174L431.139 175L430.611 177L430.306 178L430 179L429.667 180L429.333 181L428.667 183L428 185L427.667 186L427.333 187L426.611 189L426.194 190L425.389 192L424.611 194L423.75 196L423.222 197L422.778 198L422.25 199L421.833 200L421.389 201L420.611 203L420.167 204L419.75 205L418.778 207L418.222 208L417.222 210L416.778 211L416.222 212L415.778 213L415.222 214L414.25 216L413.833 217L413.389 218L412.611 220L411.75 222L411.222 223L410.778 224L410.222 225L409.222 227L408.778 228L408.222 229L407.25 231L406.833 232L406.389 233L405.611 235L404.75 237L404.25 238L403.389 240L402.611 242L401.806 244L401.389 245L400.667 247L400 249L399.694 250L399.389 251L398.861 253L398.639 254L398.361 255L398.139 256L397.639 258L397.389 259L397.083 261L396.917 263L396.611 265L396.389 266L396.083 268L396 270L396 272L396 275L396 277L396.028 278L396.083 279L396.389 281L396.611 282L396.944 284L397.056 285L397.389 287L397.639 288L398.139 290L398.361 291L398.639 292L398.861 293L399.444 295L399.833 296L400.611 298L401.389 300L401.833 301L402.25 302L402.778 303L403.778 305L404.25 306L404.833 307L405.389 308L406.667 310L408 312L409.389 314L410.139 315L411.639 317L412.389 318L414.083 320L416 322L418 323.972L419 324.889L420.944 326.278L422.5 326.889L424 327L423.306 325.5L422.361 323.944L421.25 322L420.778 321L420.222 320L419.778 319L419.25 318L418.833 317L418.389 316L417.611 314L416.806 312L416.389 311L416.028 310L415.667 309L415 307L414.694 306L414.389 305L413.861 303L413.639 302L413.361 301L413.139 300L412.861 299L412.389 297L412.056 295L411.944 294L411.611 292L411.389 291L411.083 289L411.028 288L411 287L411 285L411 283L411 280L411 275L411 273L411.028 272L411.083 271L411.389 269L411.639 268L412.139 266L412.361 265L412.639 264L412.861 263L413.389 261L414 259L414.667 257L415 256L415.667 254L416.333 252L416.667 251L417.389 249L417.806 248L418.611 246L419.389 244L419.833 243L420.25 242L421.222 240L421.778 239L422.222 238L422.75 237L423.167 236L423.611 235L424.389 233L424.833 232L425.25 231L426.222 229L426.778 228L427.222 227L428.222 225L428.778 224L429.222 223L429.778 222L430.222 221L430.778 220L431.75 218L432.167 217L432.611 216L433.389 214L433.833 213L434.25 212L435.222 210L435.75 209L436.611 207L437.389 205L438.194 203L438.611 202L439.333 200L439.667 199L440.333 197L441 195L441.333 194L442 192L442.611 190L442.861 189L443.361 187L443.639 186L443.861 185L444.139 184L444.611 182L444.917 180L444.972 179L445.083 177L445.389 175L445.611 174L445.917 172L445.972 171L446 170L446 168L446 166L445.972 165L445.917 164L445.611 162L445.389 161L445.222 160L445.056 159L444.944 158L444.611 156L444.361 155L444.139 154L443.611 152L443.306 151L442.667 149L441.972 147L441.611 146L440.75 144L440.222 143L439.778 142L439.222 141L438.167 139L437.611 138L436.972 137L435.667 135L435 134L433.583 132L431.944 130L431.056 129.028L429.444 127.333L428.667 126.722L428.25 126.361L427 126M518 319L519.5 319.778L520.056 320.306L521.028 321.111L521.917 322.028L523.583 324L524.306 325L525.611 327L526.194 328L526.806 329L527.389 330L528.028 331L529.333 333L530 334L531.333 336L533.333 339L535.333 342L538.667 347L539.333 348L540.667 350L542.667 353L544 355L546 358L547.333 360L548.667 362L549.333 363L551.333 366L558.667 377L567.333 390L578.667 407L599.333 438L600.667 440L602 442L604 445L606 448L606.667 449L612.667 458L620 469L628.667 482L634.667 491L641.333 501L643.333 504L645.333 507L646.667 509L647.333 510L648 511L649.417 512.972L651.083 514.75L652.028 515.5L654 516.5L656 516.917L658 517L659 517L661 517L665 517L675 517L678 517L680 517L686 517L693 517L695 517L696 516.972L697 516.889L699 516.361L699.972 515.889L701.75 514.583L702.5 513.778L703.5 511.972L703.917 510L704 508L704 507L704 505L704 495L704 464L704 427L704 415L704 411L704 406L704 402L704 397L704 393L704 392L704 264L704 263L704 253L704 248L704 242L704 241L704 240L704 239L704 237L704 234L704 230L704 222L704 220L704 216L704 212L704 210L704 202L704 200L703.972 198L703.75 196L703.5 195L702.5 193.083L700.917 191.5L699 190.472L698 190.167L696 189.639L695 189.389L693 189.083L692 189.028L690 189L688 189L680 189L678 189L677 189L675 189L674 189L672 189L671 189L666 189L665 189L660 189L658 189L657 189L655 189L654 189.028L653 189.083L651 189.389L649 189.889L647.028 190.694L645.25 192.111L643.944 194L643.5 195L643.083 197L643 199L643 200L643 203L643 206L643 212L643 222L643 223L643 225L643 289L643 353L643 358L643 360L643 368L643 372L643 375L643 379L643 381L642.972 383L642.917 384L642.611 385.944L642.25 387.5L642 389L640.5 388.222L639.944 387.694L638.972 386.889L637.222 385L636.417 384L635.694 383L634.389 381L633.806 380L633.194 379L632.611 378L631.333 376L630.667 375L629.389 373L628.806 372L627.611 370L626.389 368L625.194 366L624.611 365L623.333 363L622.667 362L622.028 361L621.389 360L620.194 358L619.611 357L618.333 355L617.667 354L616.389 352L615.194 350L614.611 349L613.333 347L612.667 346L611.389 344L610.806 343L609.611 341L608.972 340L607.667 338L607.028 337L606.389 336L605.194 334L604.611 333L603.333 331L602.667 330L601.389 328L600.806 327L599.611 325L598.333 323L597.667 322L596.389 320L595.806 319L594.611 317L593.333 315L592.667 314L591.389 312L590.806 311L589.611 309L588.972 308L588.333 307L587.667 306L586.389 304L585.194 302L584.611 301L583.333 299L582.667 298L581.389 296L580.806 295L579.611 293L578.972 292L578.333 291L577.667 290L576.389 288L575.806 287L574.611 285L573.389 283L572.194 281L571.611 280L570.333 278L569.667 277L569.028 276L568.389 275L567.194 273L566.611 272L565.333 270L564.667 269L563.389 267L562.194 265L561.611 264L560.333 262L559.667 261L558.389 259L557.194 257L556.611 256L555.333 254L554.667 253L553.389 251L552.194 249L551.611 248L550.333 246L549.667 245L548.389 243L547.194 241L546.611 240L545.333 238L544.667 237L543.389 235L542.806 234L541.611 232L540.333 230L539.667 229L538.389 227L537.806 226L536.611 224L535.333 222L534.667 221L533.389 219L532.806 218L531.611 216L530.333 214L529.667 213L529.028 212L528.389 211L527.194 209L526.611 208L525.333 206L524.667 205L523.389 203L522.194 201L521.611 200L520.389 198L519.194 196L518.611 195L517.306 193.083L515.778 191.472L514.917 190.861L513 189.833L512 189.389L510 188.694L509 188.417L507 188.083L506 188.028L504 188L503 188L500 188L481 188L472 188L469 188L467 188L465 188.028L464 188.083L462 188.417L461.028 188.722L459.25 189.639L458.5 190.306L457.5 192.028L457.083 194L457 196L457 197L457 199L457 201L457 206L457 238L457 243L457 244L457 246L457 248L457 252L457 254L457 260L457 264L457 266L457 270L457 275L457 278L457 282L457 290L457 293L457 295L457 298L457 302L457 310L457 315L457 320L457 322L457 323L457 325L457 328L457 333L457 334L457 344L457 350L457 351L457 361L457 366L457 369L457 373L457 379L457 382L457 384L457 390L457 391L457 400L457 402L457 403L456.972 405L456.917 406L456.611 408L456.389 409L456.222 410L456.056 411L455.944 412L455.611 414L455.361 415L454.861 417L454.611 418L453.972 420L453.611 421L453.194 422L452.389 424L451.611 426L451.167 427L450.75 428L450.222 429L449.75 430L448.611 432L447.972 433L446.667 435L446 436L444.583 438L443.806 439L442.194 441L440.611 443L438.917 445L437 446.917L436 447.778L435 448.611L433 450.194L431 451.806L429 453.306L427 454.611L426 455.194L424 456.389L423 457L421 458.111L419 459L418 459.389L416 460.194L415 460.611L413 461.333L411 462L409 462.611L408 462.861L407 463.139L406 463.361L405 463.611L403 463.917L401 464.083L400 464.222L398 464.611L396 464.917L395 464.972L393 465L391 464.917L389 464.611L388 464.389L386 464.083L384 463.917L382 463.611L381 463.361L379 462.861L378 462.611L377 462.306L376 462L374 461.333L372 460.611L371 460.194L369 459.389L368 459L366 458.111L364 457L363 456.389L361 455.194L359 453.972L357 452.611L355 451.139L354 450.361L353 449.611L351 447.917L350 446.972L349 446L347 444L345 442L344 441L342.083 439L340.417 437L339.694 436L338.389 434L337.806 433L336.639 431L336.056 430L335.056 428L334.639 427L333.806 425L333.389 424L332.667 422L332.333 421L331.694 419L331.417 418L331.194 417L331 416L330.611 414L330.389 413L330.083 411L330.028 410L330 409L330 407L330 400L330 381L330 379L330 376L330 374L330 371L330 370L330 369L330 364L330 357L330 356L330 352L330 348L330 347L330 339L330 334L330 326L330 324L330 321L330 313L330 297L330 286L330 281L330 279L330 277L329.917 275L329.75 274L329.528 273L329.139 272.028L328.139 270.222L327.528 269.417L325.917 268.111L324 267.306L323 267.111L322 267.028L321 267L320 267L317 267L281 267L277 267L275 267L273 267.083L272 267.25L271 267.5L269.083 268.5L267.5 270.083L266.944 271.028L266.5 272L266.083 274L266.028 275L266 277L266 279L266 283L266 292L266 295L266 298L266 302L266 310L266 319L266 322L266 328L266 333L266 340L266 341L266 346L266 349L266 353L266 358L266 366L266 371L266 374L266 378L266 381L266 383L266 390L266 391L266 392L266 395L266 399L266 409L266 414L266 416L266.028 417L266.083 418L266.389 420L266.611 421L266.944 423L267.056 424L267.389 426L267.806 428L268.194 430L268.389 431L268.861 433L269.139 434L269.389 435L269.694 436L270.306 438L270.611 439L270.861 440L271.444 442L271.833 443L272.194 444L272.611 445L273.389 447L273.806 448L274.611 450L275.389 452L275.833 453L276.25 454L276.778 455L277.25 456L278.389 458L279.611 460L280.75 462L281.25 463L282.389 465L283.028 466L284.333 468L285.694 470L286.389 471L287.139 472L287.861 473L289.389 475L291 477L292.611 479L293.389 480L295.083 482L297 484L298 485L300 487L302 489L303 489.972L304 490.917L306 492.611L307 493.389L309 495L311 496.583L312 497.306L314 498.694L315 499.389L317 500.833L318 501.556L319 502.167L321 503.389L323 504.611L325 505.75L326 506.222L327 506.778L328 507.222L329 507.778L330 508.222L331 508.778L332 509.222L333 509.778L335 510.778L336 511.222L337 511.778L339 512.75L340 513.167L341 513.611L343 514.333L344 514.667L347 515.667L350 516.667L351 517L353 517.611L354 517.861L355 518.139L357 518.611L358 518.806L360 519.194L362 519.611L363 519.778L364 519.917L366 520.083L367 520.222L369 520.611L371 520.917L372 520.972L374 521L375 521L377 521L386 521L395 521L397 521L399 520.972L400 520.917L402 520.611L403 520.389L405 520.083L407 519.972L408 519.917L410 519.611L412 519.222L413 519.056L414 518.944L416 518.611L417 518.361L418 518.139L419 517.861L421 517.389L422 517.194L424 516.806L426 516.306L428 515.667L429 515.333L433 514L436 513L438 512.333L440 511.611L441 511.194L443 510.389L445 509.611L446 509.167L447 508.75L449 507.778L450 507.222L451 506.778L452 506.222L454 505.222L455 504.75L456 504.167L457 503.611L459 502.389L461 501.194L462 500.611L463 499.972L464 499.333L466 498L468 496.667L469 496L471 494.583L473 493L475 491.389L476 490.611L478 488.917L479 487.972L481 486L482 485L484 483L486 481L487.972 479L488.917 478L490.611 476L491.389 475L493 473L494.583 471L496 469L496.667 468L498 466L499.333 464L499.972 463L500.611 462L501.75 460L502.25 459L503.389 457L504.611 455L505.167 454L505.75 453L506.778 451L507.222 450L507.778 449L508.75 447L509.167 446L509.611 445L510.389 443L511.194 441L511.611 440L512.389 438L513.194 436L513.611 435L514.333 433L515 431L515.306 430L515.611 429L516.139 427L516.361 426L516.639 425L516.861 424L517.139 423L517.611 421L517.944 419L518.056 418L518.389 416L518.611 415L518.917 413L518.972 412L519 411L519 409L519 403L519 384L519 376L519 372L519 364L519 357L519 355L519 354L518.917 352L518.611 350L518.389 349L518.083 347L518.028 346L518 344L518 343L518 337L518 329L518 319M1 189L0 190L0 191.5L0 215L0 219L0 220L0 225L0 229L0 233L0 234L0 235L0 240L0 242L0 245L0 251L0 253L0 255L0 257L0 260L0 264L0 274L0 282L0 286L0 292L0 297L0 302L0 307L0 313L0 314L0 320L0 321L0 343L0 344L0 346L0 351L0 357L0 362L0 369L0 382L0 386L0 392L0 393L0 394L0 401L0 403L0 420L0 431L0 436L0 443L0 447L0 455L0 466L0 467L0 499L0 501L0 520L0 522L0 595L0 741L0 815L0 1035L61 1035L61 912L61 744L61 442L61 434L61 428L61 409L61 408L61 389L61 384L61 381L61 377L61 372L61 364L61 357L61 349L61 331L61 326L61 310L61 299L61 294L61 292L61 288L61 287L61 285L61 283L61 280L61 270L61 265L61 263L61 262L61.0833 260L61.25 259L61.4722 258L61.8611 257L62.8611 255L63.4722 254L65.0833 252.028L66.0278 251.083L68 249.472L69 248.861L71 247.833L72 247.389L74 246.694L75 246.417L77 246.083L78 246.028L80 246L81 246L84 246L97 246L110 246L113 246L115 246L117 246.028L118 246.083L120 246.389L121 246.611L122 246.778L123 246.944L124 247.056L126 247.417L128 248L129 248.333L131 249.028L132 249.389L134 250.278L136 251.389L137 252.028L139 253.417L141 255.083L143 257L144 258L145 259L146.972 261L147.917 262L149.528 264L150.167 265L151.361 267L151.944 268L152.944 270L153.806 272L154.167 273L154.556 274L154.833 275L155.361 277L155.611 278L155.917 280L156.028 282L156.056 282.972L156.167 284.778L156.222 285.611L156.167 286.389L156.056 288.083L155.972 290L155.917 291L155.611 293L155.139 295L154.556 297L153.806 299L153.361 300L152.944 301L151.917 303L150.667 305L150 306L149.306 307L148.583 308L147.778 309L145.972 311L144 313L143 314L141 315.917L139 317.583L137 318.972L136 319.611L135 320.167L134 320.722L133 321.167L131 321.972L129 322.667L128 323L126 323.583L125 323.778L124 323.917L122 324L120 324L118 324.083L116.056 324.444L114.5 325.028L113 326L113 352L113 381L115.056 381.583L116.056 381.778L117 381.917L119 382L120 382L122 382L128 382L143 382L150 382L152 382L153 382.028L154 382.083L156 382.389L157 382.611L158 382.806L160 383.194L161 383.389L163 383.861L164 384.167L165 384.444L167 385.25L168 385.778L169 386.222L170 386.778L171 387.25L173 388.444L174 389.167L176 390.639L177 391.389L179 393.083L180.917 395L182.611 397L183.361 398L184.139 399L185.556 401L186.75 403L187.222 404L188.222 406L188.75 407L189.139 408L189.556 409L189.833 410L190.139 411L190.611 413L190.944 415L191.056 416L191.389 418L191.611 419L191.889 421L191.889 422L191.611 424L191.389 425L191.056 427L190.944 428L190.611 430L190.361 431L189.861 433L189.611 434L188.972 436L188.611 437L187.722 439L186.611 441L185.972 442L184.667 444L183.306 446L181.778 448L180.917 449L179.972 450L178 451.917L176 453.611L175 454.361L173 455.833L172 456.556L171 457.139L170 457.75L169 458.222L168 458.75L166 459.611L164 460.306L163 460.611L162 460.861L160 461.361L159 461.611L157 461.917L156 461.972L155 462L153 462L146 462L126 462L120 462L118 462L117 462L115 462.111L114.028 462.333L113.111 462.722L112.333 463.333L111.722 464.111L111.333 465.028L111.111 466L111 468L111 469L111 471L111 477L111 502L111 509L111 511L111 512L111.083 514L111.222 514.944L111.417 515.944L112 518L145 518L156 518L158 518L159 518L161 517.972L162 517.917L164 517.611L166 517.222L167 517.083L169 516.917L171 516.611L173 516.194L175 515.806L176 515.583L177 515.306L179 514.694L180 514.389L181 514.139L183 513.611L185 512.972L187 512.194L189 511.389L191 510.611L193 509.75L194 509.222L196 508.222L198 507.222L199 506.75L201 505.611L203 504.389L205 503.194L206 502.611L208 501.306L210 499.861L211 499.139L213 497.611L215 496L217 494.389L218 493.611L220 491.917L221 490.972L222.917 489L224.611 487L225.389 486L227.056 484L227.944 483L229.611 481L231.139 479L231.833 478L232.556 477L233.167 476L233.806 475L234.389 474L235.611 472L236.194 471L237.389 469L238 468L239.167 466L239.722 465L240.167 464L241 462L241.389 461L242.194 459L242.611 458L243.389 456L243.806 455L244.167 454L244.556 453L245.139 451L245.389 450L246 448L246.583 446L246.806 445L247.194 443L247.611 441L247.944 439L248.056 438L248.389 436L248.611 435L248.917 433L248.972 432L249 430L249 428L249 421L249 414L249 412L248.972 411L248.917 410L248.611 408L248.389 407L248.222 406L248.056 405L247.944 404L247.611 402L247.361 401L246.861 399L246.639 398L246.361 397L246.139 396L245.611 394L245.306 393L245 392L244.333 390L243.972 389L243.611 388L243.194 387L242.389 385L241.611 383L240.75 381L240.222 380L239.222 378L238.778 377L237.75 375L237.167 374L236.611 373L235.972 372L235.333 371L234 369L232.667 367L232 366L230.611 364L229.861 363L229.139 362L228.361 361L227.611 360L225.917 358L224.972 357L223 355L222 354L220 352L218 350L217 349L215 347.083L213 345.389L212 344.639L211 343.861L210 343.139L209 342.389L208 341.694L206 340.333L205 339.667L203 338.417L202.056 337.917L200.5 337.278L199 337L200 335.5L200.25 334.944L201.389 333L202.611 331L203.75 329L204.222 328L204.75 327L205.167 326L205.611 325L206.389 323L207.194 321L207.611 320L207.972 319L208.333 318L209 316L209.667 314L210 313L210.611 311L210.861 310L211.361 308L211.611 307L211.944 305L212.056 304L212.222 303L212.611 301L212.917 299L212.972 298L213.083 296L213.389 294L213.611 293L213.917 291L213.972 290L214 288L214 286L214 284L214 283L213.972 281L213.917 280L213.611 278L213.389 277L213.083 275L213.028 274L212.972 272L212.917 271L212.611 269L212.194 267L211.806 265L211.611 264L211.139 262L210.861 261L210.639 260L210.361 259L210.139 258L209.861 257L209.306 255L208.611 253L208.194 252L207.389 250L206.611 248L205.75 246L205.222 245L204.222 243L203.778 242L203.222 241L202.778 240L202.222 239L201.75 238L200.611 236L199.972 235L199.333 234L198.667 233L197.333 231L196 229L195.306 228L194.583 227L193 225L191.389 223L190.611 222L188.917 220L187.972 219L187 218L185 216L183 214.028L182 213.083L180 211.389L179 210.639L178 209.861L177 209.139L175 207.639L174 206.861L173 206.167L172 205.444L171 204.833L169 203.611L167 202.389L166 201.833L165 201.25L164 200.778L162 199.778L160 198.778L159 198.222L158 197.778L157 197.222L156 196.778L155 196.25L153 195.389L152 195.028L150 194.333L148 193.667L146 193L144 192.389L143 192.139L142 191.861L141 191.639L140 191.389L139 191.194L137 190.806L135 190.389L133 190.083L132 190.028L130 189.917L128 189.611L127 189.389L125 189.083L124 189.028L122 189L120 189L111 189L90 189L1 189M336 583L335 582L332.944 582L286 582L272 582L270 582L269 582L267 582.028L266 582.111L264 582.639L263 583.111L261.083 584.417L259.389 586.083L258.639 587.028L257.139 589L255.611 591L254.806 592L253.194 594L252.389 595L250.861 597L250.139 598L249.361 599L248.611 600L247.806 601L246.194 603L245.389 604L243.861 606L243.139 607L241.611 609L240.806 610L239.194 612L238.389 613L236.861 615L236.139 616L235.361 617L234.611 618L233.806 619L232.194 621L231.389 622L230.639 623L229.861 624L229.139 625L227.611 627L226.806 628L225.194 630L224.389 631L222.861 633L222.139 634L221.361 635L220.611 636L219.806 637L218.194 639L217.389 640L216.639 641L215.861 642L215.139 643L213.611 645L212.806 646L211.194 648L210.389 649L208.861 651L208.139 652L207.361 653L206.611 654L205.806 655L204.194 657L203.389 658L201.861 660L201.139 661L200.361 662L199.611 663L198.806 664L197.194 666L196.389 667L194.861 669L194.139 670L192.611 672L191.806 673L190.194 675L189.389 676L188.639 677L187.861 678L187.139 679L185.611 681L184.806 682L183.194 684L182.389 685L181.639 686L180.861 687L180.139 688L178.611 690L177.806 691L176.306 692.944L175.722 693.944L175.361 694.5L175 696L174.278 694.5L174.25 693.944L174.056 692.944L174.028 692L174 690L174 688L174 685L174 670L174 614L174 595L174 593L174 592L173.972 590L173.917 589L173.5 587L173.056 586L172.5 585.028L170.917 583.333L169 582.333L168 582.111L167 582.028L166 582L164 582L162 582L159 582L125 582L122 582L121 582L120 582L118 582.111L116.028 582.722L114.25 584.111L113.5 585.028L112.5 587L112.25 588L112.028 590L112 592L112 595L112 609L112 659L112 829L112 884L112 897L112 899L112 900L112.028 901L112.111 902L112.306 903L112.639 904L113.722 905.917L115.222 907.5L117.028 908.5L119 908.917L121 909L122 909L124 909L127 909L160 909L163 909L164 909L165 909L167 908.917L169 908.5L170.917 907.5L171.75 906.75L173.056 904.972L173.5 904L173.917 902L174 900L174 899L174 896L174 877L174 823L174 813L174 810L174 808L174.028 806L174.083 805L174.389 803L174.611 802L174.806 801L175.194 799L175.417 798L175.694 797L176.389 795L176.833 794L177.25 793L177.778 792L178.25 791L179.444 789L180.167 788L181.639 786L182.361 785L183.139 784L183.861 783L185.389 781L186.194 780L187.806 778L188.611 777L190.139 775L190.861 774L191.639 773L192.389 772L193.194 771L194.806 769L196.389 767L198 765L199.611 763L200.361 762L201.139 761L201.861 760L203.389 758L204.194 757L205.806 755L206.611 754L208.139 752L208.861 751L209.639 750L210.389 749L211.194 748L212.806 746L213.611 745L214.361 744L215.139 743L215.861 742L217.389 740L218.194 739L219.806 737L220.611 736L221.361 735L222.139 734L222.861 733L224.389 731L225.194 730L226.806 728L227.611 727L229.139 725L229.861 724L230.639 723L231.389 722L232.194 721L233.806 719L234.611 718L235.361 717L236.139 716L236.861 715L238.389 713L239.194 712L240.806 710L241.611 709L242.361 708L243.139 707L243.861 706L245.389 704L246.194 703L247.806 701L248.611 700L250.139 698L250.861 697L251.639 696L252.389 695L254 693L255.611 691L257.194 689L258.806 687L259.611 686L261.139 684L261.861 683L262.639 682L263.389 681L264.194 680L265.806 678L266.611 677L268.139 675L268.861 674L269.639 673L270.389 672L271.194 671L272.806 669L273.611 668L275.139 666L275.861 665L276.639 664L277.389 663L278.194 662L279.806 660L280.611 659L282.139 657L282.861 656L283.639 655L284.389 654L285.194 653L286.806 651L287.611 650L288.361 649L289.139 648L289.861 647L291.389 645L292.194 644L293.806 642L294.611 641L296.139 639L296.861 638L298.389 636L299.194 635L300.806 633L301.611 632L302.361 631L303.139 630L303.861 629L305.389 627L307 625L308.611 623L310.194 621L311.806 619L312.611 618L313.361 617L314.139 616L314.861 615L316.389 613L317.194 612L318.806 610L319.611 609L321.139 607L321.861 606L323.389 604L325 602L326.611 600L328.139 598L328.861 597L330.389 595L331.194 594L332.806 592L333.583 591L334.278 590L335.361 588L335.889 586.056L336 584.5L336 583M356 582.472L354.083 583.278L352.472 584.472L351.278 586.083L350.472 588L350.083 590L350 592L350 594L350 595L350 598L350 605L350 627L350 629L350 630L350.083 632L350.472 634L351.278 635.972L352.472 637.75L353.25 638.5L355.028 639.5L356 639.75L358 639.972L360 640L361 640L362 640L364 640L370 640L403 640L515 640L552 640L558 640L560 640L561 640L562 640L564 639.917L565.972 639.5L566.917 639.056L567.75 638.5L569.139 636.917L570.139 635L570.528 634L570.917 632L571 630L571 629L571 626L571 625L571 622L571 595L571 593L571 592L570.917 590L570.5 588L569.5 586.028L567.917 584.25L566.972 583.5L565 582.5L564 582.25L562 582.028L560 582L558 582L557 582L556 582L547 582L542 582L534 582L533 582L508 582L403 582L371 582L365 582L363 582L362 582L360 582L358 582.083L357 582.25L356 582.472M762 977L758 977L757 977L754 977L750 977L747 977L743 977L735 977L733 977L730 977L726 977L694 977L685 977L683 977L676 977L672 977L671 977L669 977L668 977L664 977L661 977L655 977L652 977L648 977L642 977L637 977L629 977L628 977L623 977L617 977L616 977L615 977L604 977L600 977L580 977L533 977L520 977L515 977L438 977L375 977L93 977L93 1035L445 1035L530 1035L532 1035L537 1035L547 1035L585 1035L590 1035L591 1035L592 1035L615 1035L619 1035L638 1035L657 1035L658 1035L663 1035L668 1035L671 1035L675 1035L683 1035L687 1035L688 1035L695 1035L721 1035L726 1035L732 1035L737 1035L745 1035L761 1035L769 1035L779 1035L783 1035L785 1035L786 1035L794 1035L796 1035L801 1035L807 1035L807.25 1033.5L807.639 1031.94L807.861 1031L808.139 1030L808.361 1029L808.611 1028L808.806 1027L809.194 1025L809.389 1024L809.861 1022L810.139 1021L810.361 1020L810.611 1019L810.806 1018L811.194 1016L811.389 1015L811.611 1014L811.806 1013L812.194 1011L812.389 1010L812.611 1009L812.806 1008L813.194 1006L813.611 1004L813.944 1002L814.056 1001L814.389 999L814.611 998L814.944 996L815.056 995L815.389 993L815.778 991L816.056 989L816.389 987L816.611 986L816.917 984L816.972 983L817.083 981L817.389 979L817.611 978L817.917 976L817.972 975L818.083 973L818.222 972L818.611 970L818.917 968L818.972 967L819 965L819 964L819 962L819.083 960L819.389 958L819.611 957L819.917 955L819.972 954L820 952L820 951L820 948L820 936L820 927L820 925L820 924L819.972 922L819.917 921L819.611 919L819.389 918L819.083 916L819.028 915L819 913L818.972 911L818.917 910L818.611 908L818.389 907L818.083 905L818.028 904L817.917 902L817.778 901L817.389 899L817.222 898L817.056 897L816.944 896L816.611 894L816.389 893L816.194 892L815.806 890L815.611 889L815.389 888L815.194 887L814.806 885L814.611 884L814.139 882L813.861 881L813.639 880L813.139 878L812.861 877L812.639 876L812.361 875L812.139 874L811.611 872L811.306 871L810.667 869L810.333 868L809.333 865L809 864L808.333 862L807.333 859L806.667 857L806.333 856L805.611 854L805.194 853L804.389 851L803.611 849L803.194 848L802.389 846L801.611 844L801.167 843L800.75 842L799.778 840L799.222 839L798.778 838L798.222 837L797.778 836L796.778 834L796.222 833L795.778 832L794.778 830L794.222 829L793.778 828L793.222 827L792.778 826L791.75 824L790.611 822L789.389 820L788.25 818L787.75 817L786.611 815L785.972 814L785.333 813L784.667 812L783.389 810L782.194 808L781.611 807L780.333 805L779 803L777 800L776.333 799L775 797L774.306 796L773.611 795L772.139 793L771.361 792L770.639 791L769.861 790L769.139 789L767.639 787L766.861 786L766.139 785L765.361 784L764.639 783L763.139 781L761.639 779L760.889 778L759.694 776L759.139 774L759.333 772L759.722 771L761.111 769.028L762.028 768.083L764 766.389L765 765.611L767 763.917L768 762.972L770 761L773 758L775 756L775.972 755L776.917 754L778.611 752L779.389 751L780.194 750L781.806 748L782.583 747L784 745L784.667 744L786 742L787.333 740L787.972 739L788.611 738L789.75 736L790.222 735L790.778 734L791.222 733L791.778 732L792.222 731L793.222 729L793.75 728L794.611 726L795.389 724L796.194 722L796.972 720L797.611 718L798.139 716L798.389 715L798.694 714L799.306 712L799.583 711L799.806 710L800.194 708L800.611 706L800.944 704L801.056 703L801.389 701L801.611 700L801.917 698L801.972 697L802 695L802 693L802 686L802 678L802 676L801.972 674L801.917 673L801.611 671L801.389 670L801.222 669L801.056 668L800.944 667L800.611 665L800.139 663L799.861 662L799.639 661L799.361 660L799.139 659L798.611 657L798 655L797.333 653L796.667 651L796.333 650L795.611 648L795.194 647L794.389 645L793.611 643L793.167 642L792.75 641L792.222 640L791.75 639L790.611 637L789.389 635L788.194 633L787.611 632L786.389 630L785.806 629L785.167 628L784.556 627L783.833 626L783.139 625L781.611 623L780 621L778.389 619L777.611 618L775.917 616L774.972 615L774 614L772 612L770 610.028L769 609.083L767 607.389L766 606.611L764 605L762 603.389L760 601.861L759 601.139L757 599.694L755 598.389L754 597.806L752 596.611L750 595.389L749 594.833L748 594.25L746 593.222L745 592.778L744 592.222L742 591.25L741 590.833L740 590.389L738 589.611L736 588.806L735 588.389L733 587.667L732 587.333L730 586.667L728 586L727 585.694L726 585.389L724 584.861L723 584.639L722 584.389L721 584.194L719 583.806L717 583.389L715 583.056L714 582.944L712 582.611L711 582.389L709 582.083L708 582.028L706 582L704 582L702 582L701 582L696 582L688 582L686 582L672 582L664 582L659 582L656 582L652 582L647 582L641 582L639 582L638 582L628 582L620 582L612 582L611 582L606 582L603 582L601 582L600 582L598 582.083L596 582.5L594.083 583.5L593.25 584.25L592.5 585.083L591.5 587L591.25 588L591.083 589L591 591L591 592L591 594L591 599L591 624L591 626L591 661L591 664L591 666L591 667L591.083 669L591.25 670L591.5 671L592.5 672.972L593.25 673.917L595.028 675.528L596 676.139L597 676.722L599 677.528L601 677.917L603 678L604 678L606 678L610 678L621 678L631 678L633 678L634 678L636 677.917L638 677.5L639 677.056L640.972 675.75L642.75 673.972L643.5 673L644.583 671L645.306 669L645.583 668L645.917 666L645.972 665L646 664L646 662L646 658L646 656L646 655L646.083 653L646.25 652L646.5 651L647.5 649L648.25 648.028L649.083 647.083L651 645.5L652 644.917L654 644.028L656 643.417L658 643.083L660 643L661 643L663 643L667 643L677 643L681 643L685 643L689 643L691 643L694 643L696 643L698 643.028L699 643.083L701 643.389L702 643.611L704 644L706 644.389L708 644.861L709 645.139L710 645.389L712 646.028L713 646.389L715 647.278L717 648.389L719 649.667L720 650.333L722 651.694L723 652.417L725 654.083L727 656L728 657L729.917 659L731.583 661L732.306 662L733.611 664L734.167 665L735.222 667L735.778 668L736.222 669L736.75 670L737.611 672L738.306 674L738.583 675L738.806 676L739.194 678L739.611 680L739.917 682L739.972 683L740 684L740 686L740 688L739.972 689L739.917 690L739.611 692L739.361 693L739.139 694L738.861 695L738.306 697L738 698L737.333 700L736.611 702L735.722 704L735.167 705L734.611 706L733.306 708L732.583 709L730.917 711L729.972 712L729 713L727 715L726 716L724 717.972L723 718.917L721 720.528L720 721.167L718 722.361L717 722.944L715 723.944L713 724.806L712 725.194L711 725.611L709 726.306L707 726.861L705 727.361L704 727.611L702 727.917L701 727.972L700 728L698 728L693 728L689 728L681 728L680 728L678 728L677 728L669 728L664 728L661 728L657 728L655 728L650 728L648 728L647 728L645 728L643 728L638 728L630 728L628 728L606 728L603 728L602 728L600 728.028L599 728.083L597 728.5L595 729.5L593.111 731.083L592.333 732.028L591.722 733L591.111 735L591 737L591 738L591 739L591 742L591 770L591 864L591 865L591 891L591 896L591 898L591 899L591 900L591.083 902L591.25 903L591.5 904L592.5 905.889L594.083 907.361L595.028 907.889L597 908.583L599 908.917L601 909L603 909L604 909L606 909L613 909L632 909L633 909L635 909L636 909L638 908.917L640 908.5L641.972 907.5L643.694 905.917L644.889 904L645.278 903L645.583 902L645.917 900L646 898L646 897L646 895L646 879L646 821L646 808L646 803L646 801L646 799L646.083 797L646.5 795L647.5 793.111L648.25 792.306L650.028 791.111L651 790.722L652 790.417L654 790.083L655 790.028L657 790L658 790L660 790L662 790L665 790L667 790L668 790L673 790L679 790L680 790L681 790L682 790L684 790L685 790L687 790.028L688 790.111L690 790.639L692 791.722L694 793.222L695 794.083L697 796L698 797L699 798L700.972 800L701.917 801L703.611 803L704.389 804L706.083 806L707.028 807L709 809L710 810L711.917 812L713.611 814L714.389 815L715.222 816L716.944 818L718.611 820L720.194 822L721.806 824L722.611 825L724.139 827L724.861 828L725.639 829L726.361 830L727.139 831L728.611 833L729.306 834L730 835L730.667 836L732.667 839L734 841L734.667 842L735.972 844L736.611 845L737.75 847L738.25 848L739.389 850L740.611 852L741.75 854L742.222 855L743.222 857L743.778 858L744.222 859L744.778 860L745.222 861L745.778 862L746.75 864L747.167 865L747.611 866L748.389 868L749.25 870L749.75 871L750.611 873L750.972 874L751.333 875L752 877L752.333 878L753.667 882L755.333 887L756 889L756.306 890L756.611 891L757.139 893L757.361 894L757.639 895L757.861 896L758.139 897L758.611 899L758.806 900L759.194 902L759.389 903L759.611 904L759.806 905L760.194 907L760.389 908L760.611 909L760.944 911L761.056 912L761.222 913L761.611 915L761.917 917L761.972 918L762.083 920L762.389 922L762.611 923L762.917 925L762.972 926L763 928L763 929L763 931L763.028 933L763.083 934L763.389 936L763.611 937L763.917 939L763.972 940L764 941L764 943L764 946L763.972 948L763.917 949L763.611 951L763.389 952L763.083 954L763.028 955L763 957L763 958L763 961L762.972 963L762.917 964L762.611 966L762.389 967L762.083 969L762.028 970L762 972L762 973.944L762 977M356 676.5L354.028 677.5L353.083 678.25L352.25 679.083L351.5 680.028L350.5 682L350.25 683L350.028 685L350 687L350 688L350 691L350 707L350 800L350 877L350 896L350 898L350 899L350.083 901L350.5 903L350.944 904L352.25 905.917L354.028 907.5L355 908.056L356 908.5L358 908.917L360 909L361 909L363 909L366 909L401 909L521 909L523 909L555 909L559 909L561 909L563 908.972L564 908.917L566 908.5L566.972 908.056L567.917 907.5L569.5 905.917L570.5 904L570.917 902L570.972 901L571 899L571 898L571 895L571 863L571 861L571 860L571 859L570.889 857L570.278 855.028L568.889 853.25L567.972 852.5L566 851.5L565 851.25L564 851.083L562 851L561 851L559 851L554 851L530 851L448 851L420 851L417 851L416 851L415 851L413 850.917L411 850.5L410 850.056L409 849.5L407.083 847.917L405.5 846L404.944 845L404.5 844L404.083 842L404 840L404 838L404 836L404 832L404 806L404 797L404 795L404 794L404.083 792L404.472 790L404.861 789L405.861 787.083L406.472 786.25L407.25 785.472L409.028 784.278L411 783.472L413 783.083L415 783L416 783L419 783L434 783L508 783L518 783L521 783L523 783L525 782.972L526 782.917L528 782.528L529.917 781.722L531.528 780.528L532.722 778.917L533.139 777.972L533.528 777L533.917 775L533.972 774L534 773L534 771L534 769L534 766L534 757L534 745L534 741L534 739L534 737L533.972 736L533.917 735L533.583 733L533.278 732L532.889 731.028L531.694 729.25L530.889 728.5L529 727.5L527 727.083L525 727L524 727L522 727L501 727L437 727L420 727L418 727L417 727L415 726.972L414 726.917L412 726.583L411 726.278L410 725.889L408.028 724.694L407.083 723.889L405.5 722L404.944 721L404.5 720L404.083 718L404 716L404 715L404 714L404 712L404 691L404 687L404 685L403.917 683L403.75 682L403.5 681L402.5 679.083L400.917 677.5L399 676.5L397 676.083L395 676L394 676L393 676L391 676L385 676L368 676L363 676L361 676L360 676L358 676.083L357 676.25L356 676.5M240 775.5L239 775.944L238 776.5L236 778.083L235 779.028L233.083 781L231.389 783L230.611 784L228.944 786L228.056 787L226.389 789L225.611 790L223.917 792L222.972 793L221.083 795L219.389 797L217.778 799L216.917 800L215.083 802L214.222 803L213.389 804L211.778 806L210.917 807L209.083 809L208.222 810L207.417 811L206.028 813L204.917 815L204.5 816L204.25 817L204.083 818L204 820L204.028 822L204.222 824L204.417 825L205.083 827L205.556 828L206.083 829L207.333 831L208.694 833L209.389 834L210.861 836L211.611 837L212.306 838L213 839L214.333 841L215 842L215.694 843L216.389 844L217.861 846L218.611 847L220 849L220.667 850L222 852L223.389 854L224.139 855L225.611 857L226.306 858L227 859L227.667 860L229 862L229.694 863L230.389 864L231.861 866L232.611 867L234 869L234.667 870L236 872L237.389 874L238.139 875L239.611 877L241 879L242.333 881L243 882L244.389 884L245.861 886L246.611 887L247.306 888L248.694 890L249.389 891L250.139 892L251.611 894L253 896L253.667 897L255 899L256.417 901L258.083 902.917L259.028 903.75L260 904.528L262 905.722L263 906.167L264 906.611L266 907.306L268 907.806L269 908L271 908.389L272 908.611L274 908.917L275 908.972L277 909L279 909L282 909L304 909L322 909L324 909L325 909L327 908.917L328 908.778L330 908.278L330.972 907.889L332.667 906.694L333.278 905.889L333.667 904.972L333.889 904L334 902L333.889 900L333.694 899L333.361 898L332.889 897L331.611 895L330.861 894L329.389 892L328.694 891L327.306 889L326.611 888L325.139 886L324.389 885L323.694 884L323 883L321.667 881L321 880L319.611 878L318.139 876L317.389 875L316.694 874L315.306 872L314.611 871L313.861 870L312.389 868L311 866L310.333 865L309 863L307.611 861L306.139 859L305.389 858L304.694 857L303.306 855L302.611 854L301.139 852L300.389 851L299.694 850L299 849L298.333 848L297 846L296.306 845L295.611 844L294.861 843L293.389 841L292.694 840L291.306 838L290.611 837L289.861 836L288.389 834L287.694 833L287 832L286.333 831L285 829L284.306 828L283.611 827L282.139 825L281.389 824L280.694 823L279.306 821L278.611 820L277.139 818L276.389 817L275.694 816L275 815L274.333 814L273 812L272.306 811L271.611 810L270.861 809L269.389 807L268.694 806L267.306 804L266.611 803L265.861 802L264.389 800L263 798L262.333 797L261 795L260.306 794L259.611 793L258.139 791L257.389 790L256.694 789L255.306 787L254.611 786L253.139 784L252.389 783L251 781L249.583 779.028L248.778 778.111L247.917 777.306L246 776.111L244 775.417L242 775.167L240 775.5z"/>
</svg>
