<?xml version="1.0" encoding="UTF-8"?>
<svg id="Capa_2" data-name="Capa 2" xmlns="http://www.w3.org/2000/svg" viewBox="0 0 604.22 625.26">
  <defs>
    <style>
      .cls-1 {
        fill: #dadada;
      }

      .cls-2 {
        fill: #1d1d1b;
      }

      .cls-3 {
        fill: #fff;
      }

      .cls-4 {
        fill: #ededed;
      }

      .cls-5 {
        fill: #c6c6c6;
      }
    </style>
  </defs>
  <g id="Logo_1" data-name="Logo 1">
    <g>
      <path class="cls-3" d="M580.47,205.54h0c-15.22-35.98-37-68.29-64.73-96.02-17.67-17.67-37.42-33.08-58.71-45.8-.58-.35-1.2-.61-1.85-.77-1.8-12.8-5.54-24.11-10.88-32.83-11.44-17.86-37.66-6.63-57.06,4.01-.85-.87-1.91-1.51-3.08-1.84-10.62-2.99-21.64-5.44-32.78-7.26,0-.11-.01-.23-.02-.34-.12-2.44-1.53-4.67-3.68-5.83-2.15-1.16-4.79-1.1-6.89.15-2.21,1.31-4.99,3-7.73,4.83-1.08-.91-2.43-1.48-3.88-1.61-6.6-.58-13.1-.96-19.33-1.11-.36,0-.71.01-1.06.06-1.2-3.96-1.7-8.63-2.08-14.63-.17-2.75-1.95-5.15-4.53-6.12-2.58-.97-5.5-.32-7.44,1.64-5.04,5.11-11.85,11.99-16.5,20.15-.61-.11-1.23-.15-1.85-.1-15.61,1.31-31.18,3.85-46.3,7.55-1.44.35-2.69,1.13-3.63,2.22-15.69-7.02-28.32-10.95-33.56-11.64-.37-.05-.73-.07-1.02-.06-11.31.17-18,8.64-20.29,15.86-.03.11-.07.22-.1.33-1.45,5.5-2.69,11.07-3.7,16.58-.84.09-1.66.33-2.41.71-28.36,14.39-54.23,33.18-76.88,55.83-27.74,27.74-49.51,60.04-64.73,96.02C7.99,242.81,0,282.38,0,323.15s7.99,80.33,23.75,117.6c15.22,35.98,37,68.28,64.73,96.02,27.73,27.73,60.04,49.51,96.02,64.73,37.26,15.76,76.83,23.75,117.61,23.75s80.34-7.99,117.61-23.75c35.98-15.22,68.29-37,96.02-64.73,27.73-27.73,49.51-60.04,64.73-96.02,15.76-37.26,23.75-76.83,23.75-117.6s-7.99-80.34-23.75-117.61Z"/>
      <g>
        <path class="cls-5" d="M344.14,215.51l-4.05,2.65s1.73,4.12.35,8.4c0,0,4.97-4.46,3.7-11.05Z"/>
        <path class="cls-5" d="M272.34,216.17c-1.15,6.46,3.92,9.54,3.92,9.54-1.45-2.72,0-7.07,0-7.07l-3.92-2.47Z"/>
        <path class="cls-5" d="M209.07,221.81c-5.67,1.73-11.31,3.56-16.78,5.79,4.22,4.94,8.89,9.29,13.95,13.08,4.56-3.03,9.53-5.42,14.74-6.79-4.46-3.6-8.47-7.63-11.92-12.08Z"/>
        <g>
          <path class="cls-5" d="M203.25,116.48c13.71-20.04,8.04-16.37,30.3-26.88-21.15-27.09-63.06-76.17-30.3,26.88Z"/>
          <path class="cls-5" d="M319.8,249.86c-7.98,1.11-15.8.24-23.73-1.09,6.5,5.19,16.91,6.2,23.73,1.09Z"/>
          <path class="cls-5" d="M304.71,203.18c-14.97-6.26-16.86-18.66,2.28-18.17-19.41-4.12-21.77,11.78-5.77,19.68-6.12,9.73-23.99,11.95-30.79,1.82,5.85,13.51,30.95,10.84,34.29-3.33ZM301.49,204.8s0,0,0,0c.04.02,0,0,0,0Z"/>
          <path class="cls-5" d="M286.97,172.24c3.15-39.5-36.96-52.39-62.51-25.4,27.37-22.54,61.08-12.36,62.51,25.4Z"/>
          <path class="cls-5" d="M255.15,212.04c1.68-6.48,7.24-9.91,13.6-10.8-6.74-2.33-15.05,3.37-13.6,10.8Z"/>
          <path class="cls-5" d="M315.78,181.57c-7.3-.03-14.37-4.8-21.32-.46,7.28-1.31,14.42,3.54,21.32.46Z"/>
          <path class="cls-5" d="M239.45,134.04c-12.74-.56-25.92-1.09-38.3,2.42-.42,6.05.24,12.09,1.88,17.93,11.02,1.27,1.99,31.28,19.43,37.76-15.62-8.03-5.2-35.5-17.08-40.01-1.03-4.43-1.64-9.05-1.54-13.61,11.56-3.03,23.76-3.32,35.62-4.49Z"/>
          <path class="cls-5" d="M436.16,216.71s8.23,7.48,20.03-.79c0,0-14.19-4.43-17.37-17.66-21.22-2.38-42.92-.42-63.68,4.72,5.53,1.62,10.8,4.2,15.96,7.16,12.28.55,24.44,5.07,33.45,13.27-7.81-3.56-15.95-6.09-24.26-7.65,14.84,9.4,29.39,19.04,47.22,14.27,0,0-13.1-.03-11.35-13.31Z"/>
          <path class="cls-5" d="M244.11,77.95c14.81-9,30.96-15.69,47.98-18.64.94,1.38,2.02,2.65,3.21,3.84-8.88,1.84-17.48,5.01-24.73,10.39,8.92-4.84,18.86-6.61,28.85-6.86,10.11,7.55,24.3,12.09,30.44,23.16-2.62-1.99-5.6-3.51-8.75-4.46,6.37,6.96,9.99,15.87,5.43,24.65-4.31,11.98-7.41,24.39-9.21,36.99-5.5-4.74-4.51-23.15-7.88-12.37-6.7,35.4,20.88,66.88,56.54,66.65,2.83.2,5.58.7,8.26,1.44,19.92-8.26,42.59-11.2,64.02-7.65-.21-2.26-.11-4.73.39-7.44,0,0,12.17-1.09,13.92-8.79.16.62-17.02.48-20.37-13.75-4.68-15.68.87-16.01-6.47-20.36,0,0,37.57-61.62,5.27-111.36,0,0-11.23-7.78-67.27,29.17l-15.08-5.15s-10.11-8.33-10.33-21.03c0,0-11.19,4.68-9.38,17.89,0,0-23.87-6.31-34.53-31.21,0,0-12.78,9.63-4.86,31.33-17.25,2.26-34.02,10.42-45.46,23.56ZM322.78,141.78c-1.93-8.19,2.09-15.62,5.05-22.95-1,7.79-5,14.89-5.05,22.95ZM412.1,153.91c-10.89,2.34-1.35,27.53-16.5,35.21,13.91-8.65,3.5-31.98,14.95-36.71,1.02-4.32,2.13-8.94,3.2-13.24-9.2-3.81-19.48-4.43-29.31-5.29,10.5-.16,21.58-.05,31.33,4.3-1.15,5.12-2.45,10.61-3.68,15.73ZM375.78,95.8c13.39.26,30.28,3.38,27.39,20.71-4.3-16.74-12.68-16.66-27.39-20.71ZM420.77,112.12c4.61,8.54,3.47,19.12.33,27.98-.84-9.4.32-18.56-.33-27.98ZM438.67,182.05c-17.67-.87-12.46-23.03-17.32-34.52,11.19,8.61,3.75,27.97,17.32,34.52ZM428.92,128.97c-1.24-9.58-1.94-19-2.1-28.65,4.1,8.84,4.85,19.31,2.1,28.65ZM436.11,112.1c-2.47-8.03-3.43-16.46-2.79-24.84,2.91,7.89,3.87,16.5,2.79,24.84ZM372.96,65.66c2.23-1.79,4.47-3.55,6.76-5.27,6.46-4.87,13.22-9.35,20.35-13.18,6.49-3.48,15.17-8.67,22.74-8.59,3.42.04,6.55,1.54,8.98,5.85,3.82,6.76,4.93,15.19,5.4,22.82.41,6.48-.27,12.38-1.35,18.7,1.08-6.36-5.36-42.84-12.86-42.02-20.08,5.78-37.59,17.64-56.28,26.83,2.2-1.08,4.33-3.6,6.25-5.15ZM334.85,48.47c2.84,16.49,20.06,12.37,27.78,23.07-9.79-7.45-31.71-3.95-27.78-23.07ZM393.67,146.48c-27.65-22.35-61.58-12.76-63.22,25.4-2.74-40.15,37.21-52.12,63.22-25.4ZM323.18,59.47c2.9,3.05,6.22,4.68,9.79,6.67-4.34,2.27-10.7-1.63-9.79-6.67ZM319.62,65.91c-6.56-.41-12.59-6.38-13.22-12.88,4.67,4.17,8.92,8.34,13.22,12.88ZM294.85,39.11c.61,10.7,5.13,20.12,13.36,27.03-11.4-2.47-18.17-16.49-13.36-27.03Z"/>
          <path class="cls-5" d="M286.56,72.73c5.7-1.87,11.54-1.65,17.39-.68-5.24-2.96-12.5-3.11-17.39.68Z"/>
          <path class="cls-5" d="M321.25,93.4c4.11,9.54-2.68,20.13-3.63,29.95,4.81-8.02,11.79-22.25,3.63-29.95Z"/>
          <path class="cls-5" d="M241.79,68.72c2.69-3.92,6.28-6.88,6.28-6.88-4.64-5.55-18.79-10.69-18.79-10.69,8.99,6.05,15.62,11.19,12.5,17.57Z"/>
          <path class="cls-5" d="M308.72,258.35c-28.52,1.7-62.76-5.32-85.98-23.09-4.75,2.18-9.31,4.7-13.78,7.37,37.19,25.78,93.08,24.28,136.08,18.55,1.57-.25,11.63-1.61,8.86-5.05-14.57-1.15-30.2,2.48-45.17,2.22Z"/>
          <path class="cls-5" d="M196.15,187.61c-.22-2.28-.26-4.54-.19-6.77.28-8.94,2.4-17.58,2.87-26.62.57-11.16-5.26-21.18-8.75-31.43-1.43-4.21-2.3-8.39-2.75-12.8-2.38-23.23-2.67-48.9,4.89-71.03,8.72-2.04,17.89,4.61,26.52,6.7-14.54-9.05-32.25-23.17-36.01,3.58-3.1,13.89-4.62,28.21-3.78,42.44.35,5.81-.43,14.47,5.75,34.05,2.1,6.65,4.17,13.3,9.03,18.46-9.4,8.53-8.35,28.6-24.27,30.03,3.77,2.24,9.75,5.79,14.1,5.26-.78,6.6-7.21,12.03-13.85,11.69,4.3,2.62,9.63,3.49,14.54,2.36-2.45,10.24-7.95,21.28-18.52,24.85,6.01,1.84,12.89.51,17.78-3.43,2.1,3.61,4.42,6.96,6.9,10.1,2.72-1.26,5.55-2.29,8.42-3.12,2.68-.78,6.05-.89,8.53-2.01-.54-.82-1.16-1.61-1.67-2.47-5.3-9.09-8.56-19.36-9.55-29.84Z"/>
          <path class="cls-5" d="M367.92,253.36c-3.71.61-6.8,2.04-9.68,4.45,3.7,1.5,8.42-.66,9.68-4.45Z"/>
          <path class="cls-5" d="M371.63,255.86c2.81-.19,4.99-2.11,5.49-4.89-2.89-.31-5.45,1.99-5.49,4.89Z"/>
          <path class="cls-5" d="M380.14,254.46c3.57-.48,6.59-2.33,8.6-5.32-3.67-.6-7.49,1.77-8.6,5.32Z"/>
          <path class="cls-5" d="M208.72,121.14c6.58-1.27,10.58-7.32,15.68-10.98,8.31-5.01,27.98-8.63,23.43-22.16-1.74,12.34-18.5,10.85-26.52,17.97-5.11,4.35-7.44,10.9-12.58,15.16Z"/>
          <path class="cls-5" d="M392.49,251.11c2.95.05,5.39-2.54,5.12-5.49-2.81.53-4.77,2.65-5.12,5.49Z"/>
          <path class="cls-5" d="M401.69,248.24c3.5-.72,6.3-3.46,7.04-6.97-3.51.71-6.28,3.47-7.04,6.97Z"/>
        </g>
        <g>
          <path class="cls-2" d="M424.98,50.18c.21-.12.31-.37.23-.6-.08-.23-.3-.37-.55-.33-24.17,3.68-41.09,22.51-49.04,33.42-.94,1.24-1.82,2.41-2.03,4.21-.19,1.79.26,3.34,1.35,4.62,2.52,2.94,7.57,3.48,9.57,3.58,3.61.57,7.52,1,11.65,1.29.04,0,.08,0,.12,0,5.8,0,6.45,2.26,7.74,6.74.21.72.43,1.48.69,2.31,1.41,3.65,2.77,7,4.1,10.04.23.33.4.82.58,1.34.36,1.04.77,2.21,1.91,2.54.04.01.09.02.14.02.01,0,.02,0,.03,0,.69-.05,1.22-.65,1.17-1.33-.21-3.64-.73-7.27-1.23-10.77-.32-2.25-.66-4.58-.9-6.81.29-8.48-6.11-11.41-11.29-12.83,2.68-4.17,3.52-9.68,3.26-11.12-.02-.12-.06-.26-.13-.39l-.07-.76c-.02-.23-.19-.41-.42-.45-.22-.04-.45.09-.54.3-2.74,6.44-10.26,8.55-14.4,9.23,11.3-14.84,24.09-26.36,38.05-34.25Z"/>
          <path class="cls-2" d="M355.07,117.46c-5.35,1.68-9.15,5.36-10.7,10.36-.22.69.02,1.39.62,1.8.28.19.6.29.91.29.35,0,.7-.12.99-.36.02-.02.05-.04.07-.07,5.03-5.88,14.75-6,21.18-6.08,4.01-.05,5.8-.11,6.25-1.11.31-.69-.28-1.38-.48-1.6-.02-.03-.05-.05-.07-.07-5.04-3.92-12.41-5.16-18.77-3.16Z"/>
          <path class="cls-2" d="M251.22,123.4c6.43.08,16.15.2,21.18,6.08.02.02.04.05.07.06.3.24.64.36.99.36.31,0,.63-.1.91-.29.59-.41.84-1.12.62-1.8-1.55-5-5.35-8.68-10.7-10.36-6.36-2-13.73-.76-18.77,3.16-.03.02-.05.04-.07.07-.19.23-.79.92-.48,1.6.45.99,2.24,1.06,6.25,1.11Z"/>
          <path class="cls-2" d="M200.76,121.83c-.08.23.02.48.23.6.08.04.16.06.24.06.15,0,.29-.06.39-.18,14.83-18.06,15.26-18.25,26.22-23.15,3.42-1.53,8.11-3.63,14.59-6.9,1.82-.92,2.12-3.85,1.65-5.61-.6-2.21-2.14-4.14-3.54-5.76-8.72-10.16-15.81-17.37-23.01-23.39-5.2-4.35-14.87-12.44-23.32-8.96-.76.31-1.36.76-1.94,1.2-.36.27-.7.53-1.08.75-.24.14-.31.45-.17.69.14.24.45.32.69.17,8.29-4.94,25.62,17.19,35.97,30.4,1.03,1.32,2.01,2.57,2.92,3.72-4.41-1.59-7.78-4.53-10.03-8.77-.11-.2-.34-.3-.56-.25-.22.05-.38.25-.38.48,0,.31.02,7.47,5.04,13.51-12.44,6.99-17.17,12.14-23.9,31.39Z"/>
          <path class="cls-2" d="M366.23,211.88c.06.25.3.41.56.37,19.88-3.02,40.26.42,57.4,9.7.08.04.16.06.24.06.16,0,.32-.08.41-.22.14-.21.11-.5-.09-.66-15.45-13.12-38.84-17.07-58.21-9.84-.24.09-.37.35-.31.59Z"/>
          <path class="cls-2" d="M191.01,204.15c.12.21.37.31.6.23,22.43-7.58,43.36-.91,56.96,6.03.07.04.15.05.23.05.15,0,.3-.07.4-.19.15-.19.14-.46-.02-.64-14.72-16.57-41.84-19.43-58.04-6.11-.19.15-.24.42-.12.63Z"/>
          <path class="cls-2" d="M419.75,240.81c-.16-.09-.36-.09-.52.01-35.61,23.13-106.37,24.92-107.08,24.94,0,0,0,0,0,0-3.79.13-7.56.19-11.21.19-40,0-71.83-7.52-94.58-22.34-.16-.11-.37-.11-.53,0-2.23,1.36-4.46,2.74-6.68,4.13-.14.09-.23.25-.24.41s.08.33.22.42c26.38,17.93,66.1,25.91,106.2,25.91,46.45,0,93.41-10.71,120.68-29.06.14-.09.22-.25.22-.42,0-.17-.09-.33-.23-.42-2.18-1.37-4.21-2.6-6.23-3.77Z"/>
          <path class="cls-2" d="M472.69,211.76c-1.04-.22-2.11-.43-3.22-.64-9.08-1.77-20.32-3.96-23.56-13.81,7.89,1.46,15.76,3.57,23.4,6.25.24.08.51-.02.62-.26.11-.23.03-.51-.19-.64-6.72-4.13-14.09-7.42-21.94-9.79,7.16-2.67,11.36-10.06,15.09-16.62.75-1.31,1.47-2.59,2.19-3.78.1-.17.1-.37-.01-.54-.11-.16-.3-.25-.49-.22-22.11,3.15-23.13-1.09-25.6-11.32-1.05-4.35-2.36-9.75-5.59-16.04,19.41-31.08,22.02-83.89,5.42-110.98-10.67-16.67-43.03,2.68-64.44,15.49-4.15,2.48-7.75,4.63-10.72,6.24-17.99-4.8-18.24-13.14-18.63-25.74-.04-1.48-.09-3.02-.17-4.61,0-.18-.11-.33-.26-.42-.15-.08-.34-.08-.49.01-6.92,4.12-19.65,11.7-21.41,19.75-18.74-9.82-21.34-19.44-22.47-37.39-.01-.2-.14-.37-.32-.44-.18-.07-.39-.02-.53.12-9.05,9.17-22.69,22.97-19.79,39.6-9.67,2.38-18.76,6.3-23.5,8.52-28.85-17.49-56.35-27.04-64.11-28.06-7.85.12-12.55,6.17-14.2,11.35-14.71,55.99-1.71,90.33,4.78,102.78-3.83,4.38-5.45,8.74-6.88,12.6-2.73,7.37-4.71,12.7-21,11.95-.17,0-.33.07-.43.2-.1.14-.12.31-.07.47.43,1.16.83,2.45,1.27,3.82,1.12,3.55,2.38,7.53,4.4,10.56l-5.76-.48c-.17-.02-.34.06-.44.2-.1.14-.13.32-.06.48.63,1.6,1.17,3.25,1.69,4.84,2,6.11,4.06,12.42,11.34,16.35-1.98,5.05-8.49,10.61-18.85,16.09-.15.08-.25.23-.26.4-.01.17.06.33.19.44l1.02.79c7.52,5.81,16.87,13.02,29.98,9.13.01.02.02.03.03.05-2.31,2.19-4.4,4.59-6.21,7.15-.14.2-.12.48.06.65.18.17.46.18.65.03,2.31-1.84,4.79-3.57,7.35-5.15,3.51,4.76,7.91,9.25,13.07,13.37-2.87,3.15-5.17,6.61-6.86,10.29-.1.22-.03.47.16.61.09.06.19.1.29.1.12,0,.24-.04.34-.13,3.04-2.8,6.3-5.41,9.95-7.98.16.04.33,0,.46-.12.23-.21.46-.4.69-.6l.41-.35c10.81-7.33,22.97-12.82,34.5-17.82.22-.09.34-.33.29-.56s-.29-.36-.49-.4c-12.06.07-24.29,4.21-33.61,11.35-4.65-3.66-8.66-7.6-11.93-11.7,18.45-8.79,39.74-10.42,56.28-10.85.25,0,.45-.19.48-.44s-.12-.48-.36-.54c-20.85-5.79-43.48-2.72-59.2,8-1.94-2.94-2.71-4.82-2.72-4.84-.06-.15-.19-.27-.35-.3-.16-.04-.33,0-.45.12-2.36,2.19-7.03,3.16-12.5,2.58-3.6-.38-6.27-1.3-7.33-2.11,12.18-7.59,15.5-22.45,15.54-22.6.03-.16-.01-.33-.12-.45s-.27-.17-.44-.15c-6.39.95-10.51-4.89-11.55-6.84,5.83.46,11.82-4.14,12.65-5.19.08-.1.3-.38.17-.7-.07-.17-.26-.31-.45-.33-7.93-.76-11.47-7.65-12.38-9.77,11.36-.86,15.42-10.14,19-18.34,2.3-5.25,4.46-10.21,8.25-12.2.13-.07.22-.19.25-.33.03-.14,0-.29-.08-.41-.25-.34-24.58-34.42-6.92-101.62.02-.05,1.96-5.33,6.37-5.33.6,0,1.23.1,1.86.28.34.11,34,11.07,58.22,26.72-5.16,3.75-8.89,8.42-12.39,15.49-.11.23-.04.51.18.64.22.14.5.09.66-.11.17-.21,17.01-21.27,48.33-25.15.16-.02.29-.11.37-.25.08-.14.09-.3.03-.44-.26-.62-6.1-15.06,4.92-27.63,1.11,4.4,7.31,22.41,35.97,31.78.19.06.4,0,.53-.14.13-.15.17-.36.08-.54-.18-.4-4.23-9.66,6.64-16.95.39,3.22,2.43,14.84,12.12,20.22,1.89.95,3.69,1.48,5.43,1.98,2.63.77,5.36,1.56,8.62,3.87.05.06.11.1.17.13.52.23,1.25-.17,7.81-4.36,13.62-8.7,41.95-26.81,56.03-24.43,2.47.42,4.66,2.09,5.85,4.48,6.98,14.03,18.85,60.11-9.75,104.33-.12.19-.1.44.05.61,3.9,4.22,5.54,10.2,7.12,15.97,2.67,9.75,5.43,19.83,19.57,19.83.05,0,.11,0,.16,0-3.64,4.94-9.18,5.47-13.13,5.39-.28.03-.48.2-.51.46-.1,1.16-.15,2.3-.14,3.47-24.79-4.5-49.76.5-68.6,13.75-.21.15-.27.43-.15.65.12.22.4.32.63.22,20.77-8.86,44.49-11.93,68.64-8.88,2.62,14.24,14.62,19.11,17.92,20.2-2.31,2.02-6,3-10.28,2.71-4.28-.29-7.75-1.75-8.63-3-.12-.16-.32-.24-.51-.2-.2.04-.35.19-.39.39-1.77,8.64,4.95,12.55,7.52,13.71-3,1.32-9.67.68-10.64.17-.21-.11-.47-.06-.62.12-1.93,2.34-4.25,4.61-6.91,6.76-17.83-16.06-42.08-22.51-63.4-16.83-.24.06-.4.3-.37.55s.24.44.5.44c21.22.04,42.5,7.01,61.52,20.17,2.6,1.99,3.68,2.78,4.2,3.03,2.98,2.24,5.88,4.63,8.61,7.09.19.17.47.17.66,0,.19-.16.23-.44.1-.65-1.84-2.86-3.96-5.64-6.29-8.26,1.63-1.24,3.17-2.5,4.56-3.73,7.22,1.49,15.55-3.54,22.26-7.59,1.95-1.18,3.79-2.29,5.43-3.14.18-.09.29-.29.27-.49-.02-.2-.16-.38-.36-.43l-6.66-1.89c3.45-1.68,8.43-5.64,12.53-8.9,1.83-1.46,3.42-2.71,4.56-3.53.16-.12.24-.32.2-.51-.04-.19-.19-.35-.39-.39Z"/>
        </g>
        <g>
          <polygon class="cls-2" points="237.73 542.22 244.08 542.22 244.08 536.9 237.73 536.9 237.73 530.89 245.28 530.89 245.28 525.68 231.8 525.68 231.8 554.37 245.51 554.37 245.51 549.08 237.73 549.08 237.73 542.22"/>
          <path class="cls-2" d="M261.11,538.83l-3.8-3.08c-1.47-1.23-2.09-2-2.09-3.55v-.19c0-1.46.66-2.08,2.05-2.08,1.32,0,1.94.65,1.94,2.2v2.43h5.81v-3.35c0-3.78-2.28-5.86-7.32-5.86h-.89c-5.15,0-7.67,2.27-7.67,6.63v.81c0,3.32,1.36,5.28,3.87,7.29l3.8,3.05c1.51,1.23,2.17,2.12,2.17,3.89v.31c0,1.62-.7,2.47-2.05,2.47s-2.13-.73-2.13-2.12v-3.51h-5.89v4.36c0,3.82,2.4,6.21,7.55,6.21h.93c5.69,0,7.94-3.24,7.94-7.32v-.81c0-3.66-1.39-5.44-4.22-7.75Z"/>
          <polygon class="cls-2" points="282.87 525.68 267.65 525.68 267.65 530.89 272.26 530.89 272.26 554.37 278.26 554.37 278.26 530.89 282.87 530.89 282.87 525.68"/>
          <rect class="cls-2" x="282.52" y="547.93" width="6.12" height="6.44"/>
          <path class="cls-2" d="M307.14,549.47h-5.5c0-.85.62-2.2,3.87-5.51,1.16-1.19,2.48-2.51,3.56-3.7,2.32-2.54,3.25-4.51,3.25-7.79v-.42c0-4.16-1.98-6.67-7.63-6.67h-.85c-5.23,0-6.97,2.74-6.97,6.32v3.89h5.62v-3.24c0-1.5.5-2.2,1.82-2.2s1.82.66,1.82,2.2v.39c0,1.85-.62,2.85-2.32,4.97-.89,1.12-2.17,2.66-3.1,3.78-3.91,4.7-4.49,6.82-4.49,10.14v2.74h16.46v-9.44h-5.54v4.55Z"/>
          <path class="cls-2" d="M325.07,525.34h-1.05c-5.46,0-7.75,2.93-7.75,7.98v13.53c0,5.13,2.52,7.9,7.78,7.9h1.01c5.03,0,7.75-2.7,7.75-7.9v-13.53c0-5.01-2.25-7.98-7.75-7.98ZM326.65,546.77c0,1.73-.62,2.74-2.09,2.74s-2.13-1-2.13-2.74v-13.45c0-1.93.66-2.78,2.09-2.78s2.13.85,2.13,2.78v13.45Z"/>
          <path class="cls-2" d="M346.98,549.47h-5.5c0-.85.62-2.2,3.87-5.51,1.16-1.19,2.48-2.51,3.56-3.7,2.32-2.54,3.25-4.51,3.25-7.79v-.42c0-4.16-1.98-6.67-7.63-6.67h-.85c-5.23,0-6.97,2.74-6.97,6.32v3.89h5.62v-3.24c0-1.5.5-2.2,1.82-2.2s1.82.66,1.82,2.2v.39c0,1.85-.62,2.85-2.32,4.97-.89,1.12-2.17,2.66-3.1,3.78-3.91,4.7-4.49,6.82-4.49,10.14v2.74h16.46v-9.44h-5.54v4.55Z"/>
          <path class="cls-2" d="M368.31,543.07v-17.54h-6c-1.9,4.63-5.93,13.65-7.98,18.08v4.51h8.17v6.25h5.81v-6.25h3.29v-5.05h-3.29ZM362.5,543.07h-4.07l4.07-9.56v9.56Z"/>
        </g>
        <g>
          <path class="cls-2" d="M227.21,466.9c-.34-.16-.7-.29-1.06-.41,1.14-.6,2.07-1.43,2.77-2.48.74-1.12,1.11-2.47,1.11-4.06,0-2.35-.94-4.23-2.81-5.64-1.87-1.4-4.58-2.11-8.13-2.11h-14v29.78h14.85c3.83,0,6.71-.71,8.66-2.13,1.94-1.42,2.91-3.4,2.91-5.96,0-1.73-.38-3.18-1.15-4.34-.77-1.16-1.82-2.05-3.15-2.66ZM210.62,456.54h7.83c1.9,0,3.38.34,4.43,1.02,1.05.68,1.57,1.72,1.57,3.11s-.52,2.38-1.57,3.06c-1.05.68-2.52,1.02-4.43,1.02h-7.83v-8.21ZM224.32,476.62c-1.11.68-2.68,1.02-4.72,1.02h-8.98v-8.59h8.98c2.04,0,3.62.35,4.72,1.04,1.11.7,1.66,1.78,1.66,3.25s-.55,2.59-1.66,3.28Z"/>
          <path class="cls-2" d="M258.69,468.8c0,3.06-.65,5.29-1.96,6.68-1.3,1.39-3.16,2.08-5.57,2.08s-4.28-.69-5.59-2.08c-1.32-1.39-1.98-3.62-1.98-6.68v-16.59h-5.53v16.76c0,4.37,1.16,7.7,3.47,10,2.31,2.3,5.49,3.45,9.55,3.45s7.28-1.15,9.59-3.45c2.31-2.3,3.47-5.63,3.47-10v-16.76h-5.45v16.59Z"/>
          <path class="cls-2" d="M291.81,472.03c1.89-.85,3.34-2.06,4.36-3.62,1.02-1.56,1.53-3.43,1.53-5.62s-.51-4.11-1.53-5.7-2.48-2.8-4.36-3.64c-1.89-.84-4.15-1.25-6.79-1.25h-12.25v29.78h5.53v-8.68h6.72c.4,0,.78-.01,1.16-.03l6.07,8.71h5.96l-6.85-9.77c.15-.06.3-.12.45-.18ZM290.28,467.18c-1.23,1.05-3.07,1.57-5.51,1.57h-6.47v-11.87h6.47c2.44,0,4.28.52,5.51,1.55,1.23,1.04,1.85,2.49,1.85,4.36s-.62,3.33-1.85,4.38Z"/>
          <path class="cls-2" d="M312.28,459.56c.96-.94,2.11-1.66,3.42-2.17,1.32-.51,2.77-.77,4.36-.77s3.1.28,4.45.83c1.35.55,2.6,1.41,3.77,2.57l3.49-3.4c-1.39-1.59-3.1-2.79-5.13-3.62-2.03-.82-4.29-1.23-6.79-1.23s-4.55.38-6.49,1.13c-1.94.75-3.64,1.82-5.1,3.21-1.46,1.39-2.59,3.01-3.38,4.85-.79,1.84-1.19,3.89-1.19,6.13s.4,4.28,1.19,6.13c.79,1.84,1.92,3.46,3.36,4.85,1.45,1.39,3.14,2.46,5.08,3.21,1.94.75,4.08,1.13,6.4,1.13,2.13,0,4.21-.32,6.25-.96,2.04-.64,3.83-1.58,5.36-2.83v-11.83h-5.19v9.21c-.6.35-1.22.64-1.85.85-1.38.47-2.8.7-4.28.7-1.59,0-3.04-.26-4.34-.77-1.3-.51-2.44-1.23-3.4-2.17-.96-.94-1.72-2.05-2.25-3.34-.54-1.29-.81-2.69-.81-4.19s.27-2.94.81-4.21c.54-1.28,1.29-2.38,2.25-3.32Z"/>
          <polygon class="cls-2" points="345.53 469.14 359.91 469.14 359.91 464.58 345.53 464.58 345.53 456.88 361.74 456.88 361.74 452.2 340 452.2 340 481.98 362.33 481.98 362.33 477.3 345.53 477.3 345.53 469.14"/>
          <path class="cls-2" d="M387.99,472.21c.15-.06.3-.12.45-.18,1.89-.85,3.34-2.06,4.36-3.62,1.02-1.56,1.53-3.43,1.53-5.62s-.51-4.11-1.53-5.7-2.48-2.8-4.36-3.64c-1.89-.84-4.15-1.25-6.79-1.25h-12.25v29.78h5.53v-8.68h6.72c.4,0,.78-.01,1.16-.03l6.07,8.71h5.96l-6.85-9.77ZM386.9,467.18c-1.23,1.05-3.07,1.57-5.51,1.57h-6.47v-11.87h6.47c2.44,0,4.28.52,5.51,1.55,1.23,1.04,1.85,2.49,1.85,4.36s-.62,3.33-1.85,4.38Z"/>
        </g>
        <g>
          <g>
            <path class="cls-2" d="M358.24,207.85c-3.75-3.92-9.38-5.79-14.75-5.13-1.45.19-9.5,1.33-5.94,3.48,2.82-.05,5.6-.02,8.32.27-2.12,15.49-34.03,11.91-35.59-2.83.03-.34.05-.69.06-1.03,14.03-5.73,17.56-17.58-2.45-16.61-9.98-.46-20.69,3.06-9.19,12.75,2.05,1.67,4.47,3.38,7.09,4.08.01.3.03.59.06.89-1.65,14.51-33.08,18.26-35.55,3,2.36.13,4.72.7,6.93,1.55,3.85-.61-1.59-4.04-3.18-4.45-6.35-2.72-15.17.35-17.16,7.27.06,2.67,3.79-2.49,5.15-2.55,1.12-.64,2.3-1.1,3.51-1.39.16,4.08,2.52,7.39,5.95,9.75-.07,4.98,1.59,9.27,4.48,10.63.7,0,1.33-.44,1.56-1.1.89-2.5,2.62-4.5,3.93-5.76.84.13,1.68.21,2.52.26-.91,30.38,46.76,40.38,48.99-.06.67-.06,1.33-.13,2-.24,1.32,1.25,3.08,3.26,3.98,5.81.23.66.86,1.11,1.56,1.1,2.93-1.39,4.6-5.79,4.47-10.87,3.2-2.31,5.4-5.49,5.6-9.37,3,.73,5.9,1.91,8.66,3.81,2.5.72-.28-2.58-.99-3.22ZM275.92,225.37c-1.06-1.59-2.43-4.22-2.61-7.4,1.82.99,3.85,1.74,5.95,2.24-1.2,1.3-2.51,3.05-3.33,5.16ZM340.56,225.37c-.84-2.15-2.18-3.92-3.4-5.23,2.14-.53,4.19-1.33,6.02-2.37-.14,3.27-1.54,5.98-2.63,7.6Z"/>
            <path class="cls-2" d="M282.76,197.7c.02-1.45-2.25-1.45-2.23,0-.02,1.45,2.25,1.45,2.23,0Z"/>
            <path class="cls-2" d="M290.1,204.61c.02-1.45-2.25-1.45-2.23,0-.02,1.45,2.25,1.45,2.23,0Z"/>
            <path class="cls-2" d="M321.02,208.96c-.02,1.45,2.25,1.45,2.23,0,.02-1.45-2.25-1.45-2.23,0Z"/>
            <path class="cls-2" d="M327.26,198.06c.02-1.45-2.25-1.45-2.23,0-.02,1.45,2.25,1.45,2.23,0Z"/>
            <path class="cls-2" d="M334.15,208.96c.02-1.45-2.25-1.45-2.23,0-.02,1.45,2.25,1.45,2.23,0Z"/>
          </g>
          <path class="cls-3" d="M293.66,232.82c.49-9.59,8.01-11,15.72-8.54,2.57.07,4.03-2.31,6.49-3.01,4.75-1.47,9.23,2.08,11.39,5.98-8.97-8.17-9.5-2.5-17.9-.42-7.72-1.94-12.63-2.82-15.7,6Z"/>
        </g>
        <path class="cls-3" d="M219.31,144.16c-2.71,2.2-8.4,2.56-10.25.73,1.83-2.26,8-2.76,10.25-.73Z"/>
        <path class="cls-3" d="M397.31,143.99c2.88-1.84,8.68-1.25,10.24.95-2.4,1.82-8.33,1.33-10.24-.95Z"/>
        <g>
          <path d="M325.1,143.28c-13.68,4.11-27.23,2.38-40.59-1.94-13.03-4.21-27.43-5.41-41.07-5.34-12.86.06-25.69,1.52-38.32,3.85.2,3.29.16,7.4,1.4,10.4,8.89,4.13,6.43,16.73,8.84,24.86,4.43,25.28,32.95,29.84,54.68,21.41,17.61-5.65,20.3-23.36,27.14-37.94,1.43-3.05,4.84-4.1,8.02-4.28,5.98-.34,13.16.57,15.27,7,4.12,12.57,10.82,29.25,22.47,33.43,14.06,6.1,34.5,9.02,47.5-1.03,10.01-7.06,11.22-23.48,13.51-35.38,3.27-11.48,6.54-1.46,7.35-18.4-29.11-4.84-58.31-5.99-86.21,3.36Z"/>
          <g>
            <path class="cls-3" d="M209.01,145.15c1.85,1.83,7.54,1.47,10.25-.73-2.26-2.03-8.42-1.53-10.25.73Z"/>
            <path class="cls-3" d="M397.26,144.25c1.92,2.28,7.84,2.77,10.24.95-1.57-2.2-7.37-2.79-10.24-.95Z"/>
            <path class="cls-3" d="M357.79,141.55c-8.36,8.77-16.71,17.55-25.03,26.35.36,2.01,1.08,4.9,2.49,8.12,11.13-11.7,22.16-23.29,33.16-34.85-4.41-.09-7.93.1-10.62.38Z"/>
            <path class="cls-3" d="M337.36,180.11c1.17,1.95,2.6,3.93,4.38,5.83,13.83-14.56,27.6-29.06,41.43-43.62-3.4-.44-6.51-.73-9.33-.92-12.07,12.99-24.62,25.5-36.47,38.71Z"/>
            <path class="cls-3" d="M240.03,141.61c-7.15,7.42-15.56,14.19-22.14,21.95.24,2.27.69,5.18,1.56,8.39,10.63-10.35,21.12-20.55,31.48-30.63-4.3-.06-8.09.1-10.9.28Z"/>
            <path class="cls-3" d="M256.68,141.7c-5.21,4.92-10.31,9.95-15.45,14.94-6.78,6.6-13.58,13.19-20.32,19.83.87,2.31,1.97,4.69,3.35,7.05,14.06-13.67,28.02-27.25,42.08-40.93-3.18-.51-6.37-.84-9.44-1.03-.08.05-.15.09-.23.14Z"/>
          </g>
        </g>
        <path class="cls-3" d="M298.3,194.58c-3.53-2.26-.27-6.93,3.26-5.63-2.41,1.18-4.24,2.69-3.26,5.63Z"/>
        <g>
          <path class="cls-2" d="M105.48,139.66c1.95.24,3.97.5,4.54.54.63-.04,1.22.06,1.79.27,1.29-1.34,2.58-2.67,3.9-3.99,15.54-15.54,32.72-28.92,51.32-40.03-.35-5.43-.44-11-.26-16.64-27.47,15.33-52.07,35.18-72.8,58.54,2.62.24,6.3.67,11.51,1.32Z"/>
          <path class="cls-2" d="M453.57,89.51c-.35,5.42-1.01,10.86-1.95,16.2,13.13,9.06,25.47,19.32,36.91,30.76,24.22,24.22,43.23,52.41,56.5,83.8,13.74,32.49,20.71,67.02,20.71,102.61s-6.97,70.12-20.71,102.61c-11.48,27.14-27.25,51.89-46.97,73.75h-148.04l120.34,26.61c-19.81,16.47-41.8,29.87-65.64,39.95-32.49,13.74-67.02,20.71-102.61,20.71s-70.12-6.97-102.61-20.71c-23.78-10.06-45.71-23.41-65.48-39.81l120.96-26.74H106.16c-19.71-21.86-35.49-46.6-46.97-73.75-13.74-32.49-20.71-67.02-20.71-102.61s6.97-70.12,20.71-102.61c10.1-23.87,23.52-45.89,40.01-65.72l-10.61-1.2c-1.21-.11-2.39-.76-3.2-1.78-.46-.58-.76-1.26-.91-1.97-37.9,47.53-60.57,107.75-60.57,173.28,0,153.64,124.55,278.19,278.19,278.19s278.19-124.55,278.19-278.19c0-97.78-50.45-183.77-126.73-233.37Z"/>
        </g>
        <g>
          <path class="cls-2" d="M316.12,34.58c2.08.1,4.16.23,6.23.37,1.72-2.19,3.87-4.17,6.2-5.99-6.26-.55-12.55-.93-18.88-1.09,1.78,2.32,4.04,4.68,6.44,6.7Z"/>
          <path class="cls-2" d="M349.33,31.54c0,.37,0,.74,0,1.12,0,1.14.02,2.55.07,3.04l.03.1.03.27c.09.74.2,1.43.31,2.09,8.3,1.38,16.52,3.11,24.66,5.21,2.49-1.48,5.1-3.03,7.81-4.59-10.82-3.05-21.81-5.45-32.93-7.24Z"/>
          <path class="cls-2" d="M241.03,40.72c11.3-2.44,22.76-4.19,34.35-5.25.34-2.26.87-4.48,1.59-6.63-15.31,1.28-30.4,3.75-45.22,7.38,3.05,1.41,6.16,2.91,9.28,4.5Z"/>
          <path class="cls-2" d="M574.02,208.01c-14.87-35.15-36.14-66.7-63.23-93.8-17.36-17.36-36.56-32.31-57.35-44.74.21,2.57.34,5.18.39,7.81,18.91,11.7,36.44,25.56,52.38,41.5,26.5,26.5,47.31,57.37,61.85,91.74,15.06,35.6,22.69,73.4,22.69,112.36s-7.63,76.76-22.69,112.36c-14.54,34.37-35.35,65.24-61.85,91.74-26.5,26.5-57.37,47.31-91.74,61.85-35.6,15.06-73.4,22.69-112.36,22.69s-76.76-7.63-112.36-22.69c-34.37-14.54-65.24-35.35-91.74-61.85-26.5-26.5-47.31-57.37-61.85-91.74-15.06-35.6-22.69-73.4-22.69-112.36s7.63-76.76,22.69-112.36c14.54-34.38,35.35-65.24,61.85-91.74,20.67-20.67,44-37.86,69.58-51.33.26-2.59.58-5.19.95-7.78-27.71,14.06-52.9,32.34-75.1,54.54-27.09,27.09-48.37,58.65-63.23,93.8-15.4,36.4-23.2,75.05-23.2,114.88s7.81,78.48,23.2,114.88c14.86,35.14,36.14,66.7,63.23,93.8,27.09,27.09,58.65,48.37,93.8,63.23,36.4,15.4,75.05,23.2,114.88,23.2s78.48-7.81,114.88-23.2c35.15-14.87,66.7-36.14,93.8-63.23s48.37-58.65,63.23-93.8c15.4-36.4,23.2-75.05,23.2-114.88s-7.81-78.48-23.2-114.88Z"/>
        </g>
        <g>
          <path class="cls-3" d="M203.13,269.86c-6.43-35.1-15.54-75.01-20.01-108.98-1.17-15.35-51.74,1.72-62.39,5.24-11.51-25.08-2.51-19.59-30.2-22.98l-.63,5.56c22.82,2.58,16.38-1.09,25.62,19.47-5.16,2.61-16.38,4.75-13.45,12.55,10.47,26.98,20.01,54.2,30.46,81.24,6.35,11.37,6.75,34.52,22.79,35.07,14.03.82,52.6-6.6,47.81-27.16Z"/>
          <path class="cls-3" d="M118.08,221.96c4.82,13.06,9.8,26.57,14.92,39.81,1.89,3.37,3.24,7.76,4.67,12.42,3.32,10.8,6.76,21.96,17.67,22.34,11.01.65,35.2-3.58,44.24-14.3,3.08-3.65,4.11-7.77,3.07-12.24-2.15-11.73-4.64-24.24-7.06-36.34-4.91-24.6-9.98-50.03-12.96-72.69-.13-1.71-.89-3-2.32-3.95-4.6-3.07-18.52-3.93-58.68,9.35l-1.16.38-.19-.41c-2.38-5.19-3.91-9.13-5.02-12.01q-3.34-8.62-13.91-9.57c-2.73-.24-6.1-.54-10.38-1.06l-.51,4.56c2.86.32,5.28.54,7.24.72,10.89,1,11.02,1.09,14.46,9.83.93,2.37,2.1,5.33,3.82,9.15l.2.44-.43.22c-1.07.54-2.37,1.05-3.76,1.6-5.44,2.14-11.62,4.57-9.45,10.33,5.34,13.77,10.53,27.83,15.54,41.42Z"/>
          <g>
            <path class="cls-1" d="M144.58,167.97c-.47-.36-1.55-.15-1.97-.06-3.17.67-34.82,8.24-33.42,11.27l12.53,31.45,16.41,42.56c31.21-14.33,18.83-25.14,10.66-45.71-1.94-4.88-4.41-9.7-6.4-14.62-1.89-4.67-4.05-10.36-3.44-15.48.22-1.88.91-3.68,2.25-5.05.61-.62,4.65-3.38,3.39-4.37Z"/>
            <path class="cls-2" d="M203.27,269.84c-2.14-11.71-4.64-24.22-7.05-36.32-4.9-24.59-9.98-50.01-12.96-72.64-.14-1.87-1.02-3.35-2.6-4.41-6.87-4.57-26.8-1.45-59.24,9.28l-.61.2c-2.35-5.12-3.85-9.01-4.95-11.85q-3.48-8.99-14.45-9.97c-2.83-.25-6.35-.57-10.86-1.12l-.14-.02-.66,5.84.14.02c3.08.35,5.67.59,7.75.78q10.6.97,13.93,9.43c.93,2.35,2.08,5.28,3.77,9.05-1.02.5-2.26.99-3.58,1.51-5.44,2.14-12.21,4.8-9.81,11.15,5.34,13.76,10.52,27.82,15.54,41.42,4.82,13.06,9.8,26.57,14.93,39.84,1.88,3.37,3.23,7.74,4.65,12.35,3.39,11.01,6.9,22.4,18.26,22.79.73.04,1.51.06,2.34.06,11.91,0,33.84-4.42,42.42-14.6,3.21-3.81,4.29-8.12,3.2-12.8ZM120.21,179.49l9.13,21.31c-.81.42-1.64.82-2.44,1.21-3.07,1.5-6.24,3.05-8.87,5.39-2.29-6.05-4.39-11.68-6.6-17.63-1.14-3.06-2.29-6.15-3.47-9.31,1.8.24,8.31-.32,12.25-.97ZM108.08,177.94c-.06-.23.02-.45.21-.59,2.25-1.59,5.24-3.01,9.14-4.34l1.91,4.41c-.67.09-1.36.2-2.09.31-2.79.44-5.96.93-8.65.66-.25-.03-.46-.2-.52-.45ZM160.72,193.49l4.42,19.73c0,.2-.06.41-.12.44,0,0-.13.04-.46-.4-.29-.59-.96-3.04-1.74-5.86-1.97-7.15-2.89-10.14-3.45-10.17-.06-.01-.19.02-.26.22h.01c0,.17.1.92.69,4.85l-11.48,2.69-2.19-7.75c4.61-1.41,9.39-2.64,14.59-3.76ZM178.27,161.5l3.43,28.92c-.33-.07-.68-.14-1.05-.21-1.31-10.15-3.11-22.06-3.86-22.37-.06-.02-.13-.02-.18.03-.53.42.43,9.49,2.33,22.07-2.85-.27-4.93-.27-5.42-.27l-.92-4.12c-.17-.73-.42-1.2-.74-1.39-.16-.1-.3-.09-.36-.08-.05-.01-.22.01-.35.16-.17.2-.2.55-.09,1.03l.63,4.35c-2.27.03-4.48.19-6.91.49-.1-.41-.34-2.1-.59-3.88-.84-6-1.3-8.9-1.68-9.15-.03-.02-.05-.03-.08-.03-.16-.08-.28-.03-.33,0-.66.45-.1,4.51.7,9.78.24,1.59.47,3.09.46,3.46-.54.07-1.07.15-1.61.23-.06-.23-.12-.56-.19-.9-.22-1.19-.44-2.41-1.07-2.33-.14.02-.26.09-.35.21-.34.47-.12,1.67.04,2.55.05.26.1.54.11.68-5.11.84-9.62,1.92-14.58,3.49-.33-.94-.67-2.21-1-3.45-.86-3.2-1.29-4.61-1.81-4.61-.16,0-.3.08-.39.21-.46.62.03,2.63.65,5.18.26,1.07.53,2.17.75,3.25-3.15,1.05-6.22,2.23-9.15,3.51l-8.36-19.51c5.92-.64,19.25-3.98,24.75-5.4.49-.13,1.01-.05,1.44.21.44.27.74.69.86,1.19.67,2.92,1.21,4.79,1.79,5.06.1.04.2.05.29.01.09,0,.17-.05.22-.12.24-.3.09-1.06-.22-2.49-.45-2.08-1.05-4.93.25-5.7,8.54-2.99,16.03-5.81,21.22-10.14l.7-.58-.84.34c-19.29,7.8-35.67,12.6-51.52,15.12l-2.23-5.21,1.88-.67c15.65-5.58,28.01-9.99,50.6-10.55.1-.02,2.29-.49,2.79,1.65ZM162.37,193.15c.52-.1,1.03-.21,1.55-.3.11.32.37,1.57.58,2.58.54,2.64.69,3.24.85,3.33l.05.03h.06c4.13-.93,6.97-2.34,7.11-2.9.02-.09,0-.18-.07-.24-.54-.47-4.51,1.05-6.36,1.8-.34-1.6-.63-3.23-.86-4.86,1.27-.23,4.21-.73,7.02-.88.33,1.96.65,3.86.95,5.68-1.87.7-8.02,3-9.1,3.41-.12-.67-.56-2.5-.98-4.27-.34-1.4-.66-2.74-.79-3.38ZM141.28,206.77c-.98.26-1.87.5-2.68.71l-2.86-6.68c2.79-1.04,5.64-2.03,8.49-2.95l2.07,7.61c-1.83.45-3.52.9-5.02,1.31ZM181.76,191.91c.31,2.89-6.02,4.65-6.32,4.74-.03.02-.05.02-.08,0-.15-.08-.67-.68-1.18-5.12.71-.03,3.83-.12,7.58.38ZM130.27,202.96c5.03,11.16,11.86,27.93,15.65,39.82l-13.04-31.89c-.57-1.39-1.97-2.26-3.46-2.14l-8.95.66h0c-.16,0-.3,0-.44.01-.59.02-.87.02-1.05-.33,3.72-2.71,7.09-4.36,11.29-6.13Z"/>
          </g>
        </g>
        <path class="cls-4" d="M141.02,266.38c-3.63-12.73-8.49-25.11-14.51-36.9,3.62,12.74,8.5,25.11,14.51,36.9Z"/>
        <g>
          <path class="cls-3" d="M523.63,255.13l-.25-.22.11-.31c5.73-16.16-1.29-28.95-8.18-36.83-15.8-18.08-46.64-28.36-70.21-23.43-10.63,2.23-24.46,8.53-29.92,25.87-.11.36-.21.39-2.75.93-.5.11-1.06.23-1.16.26-1.54.53-2.77,1.12-3.77,1.81-1.17.8-1.97,1.95-2.15,3.06-.13.8.06,1.56.57,2.24.3.4.67.74,1.06,1.09.47.43.96.87,1.35,1.46.77,1.17,1.18,2.52,1.52,3.8l.13.49-10.75,2.7c-.43.11-.75.44-.84.87-.09.44.06.86.42,1.14l8.82,6.83-.68.36c-4.94,2.66-4.1,5.2-3.04,8.41.61,1.85,1.3,3.94.82,6.2l-.04.11c-1.4,2.89-1.13,5.9.77,8.93,11.3,17.99,75.79,32.62,89.31,32.62h.02c6.75.31,11.94-3.47,13.83-10.12.34-1.17.88-1.43,2.04-2,2.34-.98,4.06-2.69,4.74-4.7.58-1.71.37-3.51-.61-5.2l-.41-.71,6.81-.3c.73-.03,1.51-.02,2.33-.01.56,0,1.13.02,1.7,0,.49,0,.9-.27,1.12-.71.22-.45.16-.95-.15-1.35-.54-.69-1.08-1.4-1.5-1.96-.37-.49-.65-.85-.74-.95l-.31-.36q-4.28-4.88-4.27-5.11v-.21s.18-.14.18-.14c1.86-1.54,3.35-2.64,5.56-2.67,1.88-.25,3.05-.98,3.42-2.16.91-2.9-2.73-7.76-4.89-9.71Z"/>
          <path class="cls-2" d="M524.26,254.69c5.75-16.43-1.37-29.41-8.38-37.42-15.96-18.26-47.12-28.66-70.93-23.67-10.81,2.27-24.86,8.66-30.46,26.28-.31.11-1.49.36-2.22.52-.71.15-1.12.24-1.25.28-1.61.55-2.9,1.17-3.96,1.9-1.33.92-2.25,2.24-2.47,3.55-.17,1,.08,1.97.71,2.81.34.46.76.84,1.16,1.2.46.42.89.81,1.23,1.31.66,1.01,1.05,2.19,1.35,3.33l-10.02,2.52c-.71.18-1.24.73-1.39,1.45-.15.71.12,1.44.69,1.88l7.91,6.13c-5.12,2.91-4.12,5.93-3.06,9.12.61,1.84,1.24,3.74.81,5.75-1.51,3.14-1.24,6.39.82,9.66,6.63,10.56,30.53,19.18,44.18,23.38,19.27,5.93,38.75,9.59,45.75,9.59h.02c.28.01.55.02.82.02,6.72,0,11.83-3.94,13.75-10.68.25-.85.55-.99,1.64-1.53,2.51-1.05,4.38-2.92,5.13-5.14.61-1.8.44-3.68-.48-5.45l5.58-.25c.71-.03,1.48-.02,2.29-.01.57,0,1.15.02,1.72,0,.77,0,1.45-.45,1.78-1.14.34-.7.25-1.52-.23-2.13-.54-.69-1.08-1.4-1.5-1.95-.39-.51-.68-.89-.77-.99l-.32-.36c-2.21-2.52-3.55-4.05-3.98-4.55,1.7-1.4,3-2.31,4.92-2.34,2.25-.3,3.63-1.2,4.09-2.69,1.05-3.35-2.89-8.43-4.98-10.38ZM431.11,257.87c-6.04-4.55-13.52-10.19-23.15-17.11.79-.12,1.58-.36,2.35-.58,1.68-.5,3.27-.97,4.62-.24,7.29,9.47,17.74,13.8,26.05,16.51,6.82,1.71,13.79,4.16,20.53,6.53,16.44,5.79,33.43,11.77,50.87,8.08,1.79.1,2.94,1.47,4.16,2.92.52.62,1.05,1.25,1.66,1.82-11.68.1-20.97.37-28.46.59q-32.75.96-58.62-18.53ZM519.01,251.19c-3.77,5.74-22.02-.77-34.11-5.08-3.71-1.32-6.92-2.47-8.78-2.91-6.1-2.56-12.8-4.55-19.29-6.47-12.42-3.69-25.26-7.5-34.97-15.5,7.47-22.78,33.46-26.64,55.95-20.35,24.75,6.92,46.83,26.42,41.2,50.31ZM508.16,257.31c1.79.48,3.7.53,5.55.57,3.88.09,7.54.18,9.62,4.16l-6.4,3.2c-1.33-3.88-4.13-4.83-7.34-4.83-1.55,0-3.2.22-4.83.44-4.26.57-8.68,1.16-11.42-1.96-2.54-3.33-6.08-3.18-9.52-3.02-3.34.15-6.5.29-8.82-2.58-5.2-5.82-11.44-7.8-19.07-6.04-3.1.72-5.9-.19-8.06-2.59-2.43-3.43-5.86-3.41-9.18-3.39-2.88.02-5.6.04-7.84-2.01-1.31-.88-2.6-2.06-3.84-3.2-3.65-3.35-7.42-6.82-12.39-3.14-.7-2.36-1.65-4.13-3.36-6.28.69-.11,1.38-.33,2.05-.54,1.6-.51,3.11-.98,4.42-.07,8.58,6.36,18.96,9.56,28.99,12.66,4.9,1.51,9.96,3.08,14.72,4.98h.01c13.7,4.51,27.84,8.42,41.51,12.2l5.19,1.44ZM409.79,264.27c7.43,6.85,21.63,10.1,23.22,10.45,5.67,1.83,11.35,3.86,16.85,5.83,12.93,4.62,26.3,9.4,40.34,11.89,4.07.95,8.39,1.74,12.52,1.16-10.81,12.53-53.14-4.55-71.35-11.89-2.36-.95-4.4-1.77-5.85-2.32-1.08-.62-2.49-1.28-3.99-1.98-5.96-2.78-14.08-6.57-11.74-13.13ZM408.19,253c.15-.72.83-1.27,2.03-1.65,2.7-.79,4.64-.5,6.71,1.02,6.23,4.59,12.66,9.13,18.87,13.51,4.3,3.04,8.74,6.17,13.1,9.3-13.26-3.69-24.28-7.21-34.21-14.24-.27-.24-.62-.54-1.02-.88-2.06-1.75-5.89-5-5.47-7.07ZM464.08,280.2c10.16.22,20.47.09,30.45-.03,3.53-.04,7.06-.09,10.59-.12h.02c2.24,0,5.23,2.42,5.53,4.48.16,1.14-.58,1.98-2.15,2.43-11.68,3.38-23.73-.39-35.39-4.05-3.12-.98-6.08-1.91-9.05-2.71Z"/>
          <path class="cls-3" d="M489.89,268.3c-.63-.14-1.31-.31-1.85-.69-.3-.21-1.21-1.29-.33-1.31.2,0,.38.09.56.18,1.75.89,3.73,1.24,5.69,1.42,2.05.19,4.14.13,6.17.52.08.01.16.03.21.09.3.35-.91.8-1.1.85-.91.22-1.85.16-2.78.07-1.75-.17-3.48-.47-5.19-.87-.36-.08-.85-.16-1.37-.28Z"/>
          <path class="cls-3" d="M502.71,268.64c-.49-.31-.42-.88.41-.93.61-.03,1.25.06,1.85.16.43.07.65.6.32.93-.4.4-1.67.08-2.16,0-.17-.03-.31-.09-.42-.16Z"/>
          <g>
            <path class="cls-5" d="M425.92,222.74c8.36,6.28,40.97,15.74,60.23,23.2,1.8.7,1.59-1.01.52-1.85-5.64-4.4-13.06-6.46-19.7-8.86-7.96-2.88-16.46-5.57-23.52-10.36-2.63-1.79-5.48-4.2-5.95-7.55-.52-3.75,3.82-7.57,6.61-9.52,4.73-3.31,10.58-4.65,16.27-4.93,2.9-.14,5.8,0,8.68.35,3.12.38,6.17,1.21,9.3,1.53.5.05,1.01.09,1.52.11,1.59.06,2.49-.62.92-1.87-.22-.17-8.9-3.1-19.77-3.74-12.84-.76-25.85,3.05-33.99,13.5-.33.42-.67.84-.99,1.27-2.1,2.75-3.38,6.28-.13,8.72Z"/>
            <path class="cls-5" d="M445.19,285.58c-.22-.56-1.97-1.21-2.5-1.47-1.77-.89-3.64-1.59-5.47-2.34-3.64-1.47-7.33-3.19-9.64-6.51-.45-.65-.86-1.35-1.49-1.82-.62-.46-1.39-.64-2.13-.85-4.07-1.13-7.91-3.09-11.21-5.73-.42-.34-.85-.69-1.36-.84-3.11-.89.17,4.29,1.01,4.98,4.6,3.77,9.95,6.44,15.41,8.74,3.27,1.38,6.57,2.68,9.88,3.96,1.62.63,3.24,1.26,4.86,1.89.39.15,3.24,1.48,2.65-.01Z"/>
            <path class="cls-5" d="M421.69,263.77c5,2.97,10.29,5.42,15.86,7.26.57.19,1.64.57,2.22.21.73-.46.24-1.14-.39-1.52-1.59-.98-3.39-1.55-4.97-2.5-1.72-1.04-3.37-2.23-4.99-3.42-3.81-2.78-7.46-5.79-11.14-8.74-2.09-1.54-4.93-4.57-7.49-3.05-3.64,2.16,1.31,5.21,2.54,6.14,2.7,2.03,5.48,3.91,8.37,5.62Z"/>
            <path class="cls-5" d="M459.95,272.58c-1.32-.31-2.63-.73-3.93-1.34-3-1.42-5.64-3.43-8.38-5.26-2.96-1.98-5.83-4.1-8.75-6.14-5.95-4.15-11.92-8.25-17.97-12.25-3.41-2.25-7.31-4.21-10.48-6.77,11.62,9.33,24.16,18.46,36.29,27.17,2.39,1.31,5.3,4.64,12.86,6.66,9.42,1.44,23.06,1.43,33.32.77-5.98-.33-11.95-.62-17.92-1.08-3.14-.24-6.28-.53-9.41-.9-1.94-.23-3.79-.44-5.61-.86Z"/>
            <path class="cls-5" d="M440.58,239.24c-8.11.13-8.75-5.04-14.65-6.72,3.9,4.62,7.71,10.41,14.65,6.72Z"/>
            <path class="cls-5" d="M448.64,241.92c-.61-.56-1.47-1.14-2.33-1.03,5.08,8.46,9.25,5.43,17.47,4.03-4.95-2.36-11.45,2.02-15.13-2.99Z"/>
            <path class="cls-5" d="M422.19,230.06c-4.32-1.58-4.9,1.16-8.89-2.96,2.1,4.97,4.62,3.34,8.89,2.96Z"/>
          </g>
          <path d="M438.1,213.17c.48,1.88-4.72,3.03-5.07,1.11-.48-1.88,4.72-3.03,5.07-1.11Z"/>
          <path d="M445.86,226.57c-1.25,1.49-5.21-2.07-3.86-3.47,1.25-1.49,5.21,2.07,3.86,3.47Z"/>
          <path d="M454.26,210.75c1.56,1.17-1.78,5.32-3.25,4.05-1.56-1.17,1.78-5.32,3.25-4.05Z"/>
          <path d="M462.9,204.03c-.76,1.79-5.59-.47-4.7-2.2.76-1.79,5.59.47,4.7,2.2Z"/>
          <path d="M470.19,214.18c-.76,1.79-5.59-.47-4.7-2.2.76-1.79,5.59.47,4.7,2.2Z"/>
          <path d="M494.21,220.2c-.76,1.79-5.59-.47-4.7-2.2.76-1.79,5.59.47,4.7,2.2Z"/>
          <path d="M490.7,236.48c-1.17,1.56-5.32-1.78-4.05-3.25,1.17-1.56,5.32,1.78,4.05,3.25Z"/>
          <path d="M485.04,209.04c.73,1.8-4.27,3.63-4.88,1.78-.73-1.8,4.27-3.63,4.88-1.78Z"/>
          <path d="M462.17,222.99c.88,1.74-3.95,3.98-4.71,2.19-.88-1.73,3.95-3.98,4.71-2.19Z"/>
          <path d="M473.52,236.14c-1.01,1.66-5.47-1.25-4.35-2.84,1.01-1.66,5.47,1.25,4.35,2.84Z"/>
          <path d="M479.17,223.35c.48,1.88-4.72,3.03-5.07,1.11-.48-1.88,4.72-3.03,5.07-1.11Z"/>
          <path d="M504.4,230.59c.48,1.88-4.72,3.03-5.07,1.11-.48-1.88,4.72-3.03,5.07-1.11Z"/>
          <path d="M504.73,219.03c1.7-.95,4.15,3.77,2.39,4.61-1.7.95-4.14-3.77-2.39-4.61Z"/>
          <path d="M511.82,237.34c1.7-.95,4.15,3.77,2.39,4.61-1.7.95-4.14-3.77-2.39-4.61Z"/>
          <path d="M502.1,241.38c.95,1.7-3.77,4.15-4.61,2.39-.95-1.7,3.77-4.14,4.61-2.39Z"/>
          <path class="cls-3" d="M424.01,243.79c-.18-.06-.33-.19-.47-.32-1.36-1.19-3.02-2.31-3.97-3.89-.15-.25-.43-.66-.35-.97.24-.94,1.83.77,2.08,1.05.83.96,1.72,1.88,2.65,2.74.22.21.65.43.74.75.1.36-.17.74-.58.66-.03,0-.07-.02-.1-.03Z"/>
          <path class="cls-3" d="M428.96,247.11c-.86-.09-2.17-1.16-1.93-1.82.29-.79,2.08.57,2.32.86s.43.6.1.85c-.12.1-.29.13-.49.11Z"/>
          <path class="cls-3" d="M435.59,250.21c-.86-.03-2.04-.65-2.81-1-.31-.14-.98-.37-1.13-.72-.24-.56.54-.74.97-.59,1.19.39,2.44.89,3.55,1.49.16.09.79.36.73.62-.07.32-1.11.21-1.3.2Z"/>
        </g>
        <g>
          <g>
            <path class="cls-3" d="M427.88,295.25c-.68-.28-1.06-1.62-1.45-2.19-2.19-3.27-4.48-6.5-6.97-9.55-2.87-3.62-6.17-7.28-10.37-9.37-4.96-2.47-10.1-1.41-14.32,2-13.57,13.84,10.83,22.26,19.1,28.86.73,4.53-26.72-10.43-27.16-13.43-3.13,3.94-4.04,9.55-1.94,14.17,2.05,4.52,6.35,7.23,10.66,9.32,1.21.58,14.84,5.43,14.86,5.27l-.22,1.24c-8.43-1.13-16.91-2.37-24.53-6.66-.23,8.21,4.88,13.8,12.16,18.14,10.17,6.07,21.17,11.79,33.35,11.53,11.96-.26,24.26-7.56,29.81-18.23,4.04-7.78,3.87-16.66,1.85-25.02-1.95-8.06-6.17-16.93-13.88-20.9-1.64-.85-3.41-1.43-5.24-1.69,1.59,2.37,2.87,5,4.19,7.52,1.53,2.95,3.52,6.21,4.2,9.51.38,1.86-.99,1.46-1.75,0-3.61-6.9-8.37-13.26-14.03-18.61-3.82-3.61-8.29-7.12-13.46-8.48-3.61-.95-7.35-.54-10.55,1.44.41-.25,4.13,3.67,4.55,4.1,1.38,1.43,2.71,2.95,3.91,4.54,3.26,4.32,6.57,9.38,8.07,14.63.16.57.29,1.72-.28,1.92-.36.1-.55-.05-.55-.05Z"/>
            <polygon class="cls-3" points="390.9 287.03 390.9 287.03 390.9 287.02 390.9 287.03"/>
          </g>
          <g>
            <path class="cls-5" d="M415.2,281.99c-5.72-3.3-11.67-6.94-18.29-5.51-.51.11-.83-.51-.45-.86,5.91-5.32,15.76-.82,19.43,5.7.25.44-.26.92-.7.67Z"/>
            <path class="cls-5" d="M387.36,296.28c-.52,3.86.3,7.46,2.37,10.76.27.44-.21.97-.66.71-3.93-2.3-5.22-8.11-2.61-11.84.3-.42.96-.14.89.37Z"/>
            <path class="cls-5" d="M391.97,326.63c-2.67-1.31-4.57-4.55-3.95-7.47.1-.47.72-.56.94-.14,1.22,2.36,2.61,4.55,3.7,6.96.2.43-.27.85-.7.65Z"/>
            <path class="cls-5" d="M414.99,272.52c-.75-.69-1.5-1.35-2.24-1.95-.27-.22-.24-.65.07-.82,10.96-6.03,23.23,6.51,29.86,14.35,1.59,2.05,3.1,4.22,4.5,6.42-8.4-9.93-18.91-21.21-31.74-17.88-.16.04-.33,0-.46-.11Z"/>
            <path class="cls-5" d="M420.31,339.32c17.2-.61,36.63-11.11,35.22-32.17,0-.01,0-.03,0-.04-1.26-9.3-6.03-17.51-10.08-25.82-.14-.29-.28-.6-.24-.92.09-.64.79-.58,1.26-.49,3.1.63,5.86,4.15,7.75,6.47,7.24,8.89,11.11,22.01,7.89,33.27-2.44,8.57-8.4,15.93-16.57,19.64-8.07,3.82-19.82,6.37-27.55,1.37-.3-.19-.31-.65-.02-.84.63-.41,1.87-.47,2.34-.48Z"/>
          </g>
          <path class="cls-2" d="M465.76,289.51c-4.03-7.35-12.63-19.36-25.16-17.52-4.91-5.2-14.14-10.7-22.93-10.58-4.68.05-8.51,1.66-11.4,4.79-4.47-1.46-10.07.17-15.07,4.41-4.97,4.21-7.96,9.9-7.37,13.94-9.7,10.6-7.52,19.23-4.45,25.59-1.62,7.11,0,13.85,4.79,20.03,10.45,13.47,33.55,21.01,46.24,21.28,19.59-1.05,33.67-11.43,38.64-28.47,1.16-3.81,1.76-7.84,1.77-11.97.11-7.66-1.68-15.29-5.06-21.49ZM428.65,295.77c.11-.05.22-.1.29-.17.72-.65.31-2.18.26-2.35-1.66-5.77-5.45-11.2-8.16-14.79-1.16-1.53-2.48-3.07-3.95-4.58l-.11-.11c-1.94-2.02-3.08-3.1-3.78-3.65,2.81-1.48,6.12-1.81,9.4-.95,5.4,1.42,9.92,5.22,13.24,8.36,5.6,5.29,10.29,11.5,13.93,18.48.58,1.1,1.45,1.7,2.12,1.46.32-.11.83-.5.56-1.8-.57-2.79-2.01-5.46-3.4-8.05-.29-.54-.57-1.07-.85-1.59l-.6-1.16c-.93-1.81-1.9-3.68-2.99-5.44,1.37.3,2.7.78,3.97,1.44,8.59,4.44,12.22,14.8,13.62,20.58,2.32,9.59,1.71,17.89-1.81,24.67-5.36,10.32-17.44,17.71-29.38,17.96-12.37.29-23.56-5.78-33.08-11.46-8.01-4.78-11.82-10.16-11.92-16.87,7.77,4.15,16.36,5.3,23.97,6.32l.47.06.39-2.14-2.17-.66c-7.67-2.34-15.59-4.75-21.42-10.35v-.03s-.11-.19-.11-.19c-.18-.3-.38-.56-.59-.82-.4-.51-.77-.99-.96-1.77l-.09-.38h-.22c-1.99-4.15-1.45-9.37,1.34-13.3,2.48,3.11,14.65,9.93,21.31,12.56,4.36,1.72,5.52,1.39,6.01,1,.18-.15.48-.49.37-1.11l-.03-.19-.15-.12c-1.82-1.46-4.43-3-7.18-4.64-6.65-3.95-14.92-8.86-15.7-14.85-.37-2.81.88-5.63,3.78-8.59,4.35-3.52,9.25-4.21,13.79-1.94,4.2,2.09,7.51,5.84,10.2,9.24,2.19,2.69,4.4,5.71,6.94,9.51.11.16.21.39.33.64.31.65.67,1.38,1.26,1.68,0,0,.38.31,1.04.11Z"/>
        </g>
        <g>
          <g>
            <path class="cls-3" d="M215.03,314.91c-7.63,4.29-16.1,5.53-24.53,6.66l-.22-1.24c.03.15,13.65-4.69,14.86-5.27,4.32-2.08,8.61-4.8,10.66-9.32,2.1-4.62,1.19-10.23-1.94-14.17-.43,3-27.89,17.96-27.16,13.43,8.26-6.6,32.67-15.02,19.1-28.86-4.22-3.41-9.37-4.47-14.32-2-4.19,2.09-7.5,5.75-10.37,9.37-2.48,3.05-4.78,6.28-6.97,9.55-.38.57-.77,1.91-1.45,2.19-.03.01-.06,0-.09.02-.23.36-.46.72-.68,1.06.06-.34.14-.69.22-1.03-.57-.19-.44-1.35-.28-1.92,1.51-5.24,4.81-10.3,8.07-14.63,1.2-1.59,2.52-3.11,3.91-4.54.42-.43,4.14-4.35,4.55-4.1-3.2-1.98-6.94-2.39-10.55-1.44-5.17,1.36-9.64,4.87-13.46,8.48-5.66,5.35-10.43,11.71-14.03,18.61-.76,1.45-2.13,1.85-1.75,0,.67-3.3,2.66-6.56,4.2-9.51,1.31-2.52,2.6-5.15,4.19-7.52-1.83.26-3.6.84-5.24,1.69-7.71,3.98-11.93,12.84-13.88,20.9-2.02,8.35-2.19,17.23,1.85,25.02,5.54,10.67,17.85,17.98,29.81,18.23,12.18.26,23.18-5.46,33.35-11.53,7.28-4.35,12.4-9.94,12.16-18.14Z"/>
            <polygon class="cls-3" points="209.68 287.03 209.69 287.03 209.68 287.02 209.68 287.03"/>
          </g>
          <g>
            <path class="cls-5" d="M185.38,281.99c5.72-3.3,11.67-6.94,18.29-5.51.51.11.83-.51.45-.86-5.91-5.32-15.76-.82-19.43,5.7-.25.44.26.92.7.67Z"/>
            <path class="cls-5" d="M213.22,296.28c.52,3.86-.3,7.46-2.37,10.76-.27.44.21.97.66.71,3.93-2.3,5.22-8.11,2.61-11.84-.3-.42-.96-.14-.89.37Z"/>
            <path class="cls-5" d="M208.61,326.63c2.67-1.31,4.57-4.55,3.95-7.47-.1-.47-.72-.56-.94-.14-1.22,2.36-2.61,4.55-3.7,6.96-.2.43.27.85.7.65Z"/>
            <path class="cls-5" d="M185.59,272.52c.75-.69,1.5-1.35,2.24-1.95.27-.22.24-.65-.07-.82-10.96-6.03-23.23,6.51-29.86,14.35-1.59,2.05-3.1,4.22-4.5,6.42,8.4-9.93,18.91-21.21,31.74-17.88.16.04.33,0,.46-.11Z"/>
            <path class="cls-5" d="M180.27,339.32c-17.2-.61-36.63-11.11-35.22-32.17,0-.01,0-.03,0-.04,1.26-9.3,6.03-17.51,10.08-25.82.14-.29.28-.6.24-.92-.09-.64-.79-.58-1.26-.49-3.1.63-5.86,4.15-7.75,6.47-7.24,8.89-11.11,22.01-7.89,33.27,2.44,8.57,8.4,15.93,16.57,19.64,8.07,3.82,19.82,6.37,27.55,1.37.3-.19.31-.65.02-.84-.63-.41-1.87-.47-2.34-.48Z"/>
          </g>
          <path class="cls-2" d="M216.76,284.55c.59-4.04-2.4-9.73-7.37-13.94-4.99-4.24-10.6-5.87-15.07-4.41-2.89-3.13-6.72-4.74-11.4-4.79-.08,0-.15,0-.23,0-8.76,0-17.83,5.43-22.7,10.59-12.52-1.84-21.13,10.17-25.16,17.52-3.38,6.2-5.17,13.83-5.06,21.48,0,4.14.6,8.17,1.77,11.97,4.97,17.05,19.05,27.43,38.68,28.48,12.66-.27,35.76-7.81,46.2-21.28,4.8-6.18,6.41-12.92,4.8-20.03,3.07-6.36,5.25-14.99-4.45-25.59ZM213.34,308.92c-5.84,5.63-13.78,8.05-21.47,10.4l-1.74.53c-.24.07-.39.32-.35.57l.22,1.24c.05.26.29.44.56.41,7.61-1.02,16.2-2.17,23.97-6.32-.11,6.71-3.92,12.09-11.92,16.87-9.52,5.68-20.7,11.73-33.08,11.46-11.93-.25-24.01-7.64-29.37-17.96-3.52-6.78-4.13-15.08-1.81-24.67,1.4-5.78,5.03-16.14,13.62-20.58,1.27-.66,2.61-1.14,3.97-1.44-1.09,1.75-2.05,3.62-2.98,5.43l-.6,1.17c-.27.52-.56,1.05-.85,1.59-1.39,2.59-2.83,5.26-3.4,8.05-.26,1.3.24,1.68.56,1.8.67.24,1.54-.36,2.12-1.46,3.65-6.98,8.33-13.19,13.93-18.48,3.33-3.15,7.84-6.94,13.24-8.36,3.28-.87,6.59-.53,9.4.95-.7.55-1.83,1.62-3.77,3.64l-.12.12c-1.47,1.51-2.79,3.06-3.95,4.58-2.71,3.59-6.5,9.02-8.16,14.79-.05.17-.46,1.71.26,2.35.07.06.17.12.28.17,0,.02-.01.1-.02.11-.02.24.13.46.36.53.05.01.09.02.14.02.19,0,.36-.11.45-.28l.21-.43s.03-.1.04-.15c.51-.34.83-.99,1.12-1.59.12-.25.22-.48.33-.64,2.54-3.8,4.75-6.82,6.94-9.51,2.69-3.39,6-7.14,10.2-9.23,4.54-2.26,9.43-1.57,13.74,1.9,2.94,3,4.19,5.82,3.82,8.63-.78,5.98-9.05,10.9-15.7,14.85-2.75,1.64-5.36,3.18-7.18,4.64-.1.08-.16.19-.18.31-.1.62.19.96.37,1.11.49.39,1.64.72,6.01-.99,6.67-2.62,18.84-9.45,21.32-12.56,2.8,3.95,3.33,9.19,1.33,13.33-.14.06-.26.19-.29.35-.18.78-.56,1.26-.96,1.77-.2.26-.41.52-.59.82-.03.05-.06.11-.07.17Z"/>
        </g>
        <g>
          <path class="cls-2" d="M304.36,342.76c-7.53,4.27-13.46,10.13-17.77,17.58-4.31,7.45-6.52,16.03-6.6,25.73.09,9.66,2.29,18.21,6.6,25.66,4.31,7.45,10.24,13.32,17.77,17.61,7.53,4.29,17.72,6.44,30.56,6.44,7.17,0,14.66-1.18,22.48-3.54v-30.59c-5.84,2.58-11.78,3.86-17.84,3.86-6.87,0-12.03-1.6-15.49-4.8-3.46-3.2-5.18-8.08-5.18-14.65s1.73-11.45,5.18-14.65c3.46-3.2,8.62-4.8,15.49-4.8,6.05,0,12,1.29,17.84,3.86v-30.59c-7.81-2.36-15.31-3.54-22.48-3.54-12.84,0-23.02,2.14-30.56,6.41Z"/>
          <rect class="cls-2" x="470.03" y="338.67" width="36.26" height="94.28"/>
          <rect class="cls-2" x="233.9" y="338.67" width="36.26" height="94.28"/>
          <path class="cls-2" d="M430.15,357.07c-1.98-.04-4.24-.25-6.68-.63v16.43h-18.93v-21.83c-7.21-2.99-14.3-7.1-19.84-12.36h-15.9v94.28h35.74v-34.2h18.93v34.2h35.68v-86.6c-8.04,6.84-18.26,10.73-29,10.73h0Z"/>
          <path class="cls-2" d="M208.55,342.02c-15.81,11.12-30.59,14.24-43.04,12.78l-6.68,25.22-7.75-29.26c-5.12-2.36-9.54-5.51-13.06-9.02-.97-.96-1.89-1.99-2.78-3.06h-29.61l-11.08,94.28h34.32l2.9-44.05,15.78,44.05h22.48l15.78-44.05,2.96,44.05h34.26l-10.94-93.13c-1.15.82-2.34,1.56-3.55,2.2Z"/>
        </g>
        <g>
          <path class="cls-2" d="M386.43,267.13c-8.1,1.84-16.53,3.6-25.21,5.17.02.29.04.58.04.88,0,15.49-25.94,28.1-57.82,28.1s-57.82-12.6-57.82-28.1c0-.34.03-.68.06-1.02-13.82-3.44-27.48-8.47-40.74-15.52.43,2.04.86,4.13,1.25,6.26,7.8,2.96,14.47,13.51,14.69,19.62,9.43,11.28,7.65,20.64,4.66,27.69,1.19,5.69.11,11.45-2.38,16.58h59.12v7.41c3.9-1.58,8.18-2.99,12.86-4.2,11.81-3.06,26.75-4.55,45.67-4.55,8.49,0,17.34.53,26.38,1.56l9.18.08c-2.04-4.78-2.61-9.82-1.69-15.05-3-7.07-4.82-16.47,4.67-27.79.27-4.15,3.49-11.17,8.16-15.4-.39-.55-.75-1.12-1.07-1.71Z"/>
          <path class="cls-2" d="M303.44,299.6c30.96,0,56.15-11.85,56.15-26.43,0-.03,0-.05,0-.08-2.2.39-4.49.77-6.96,1.17-8.07,10.99-27.17,18.09-48.77,18.09s-40.02-6.87-48.33-17.51c-2.77-.54-5.53-1.14-8.24-1.78,0,.04,0,.08,0,.12,0,14.57,25.19,26.43,56.15,26.43Z"/>
        </g>
        <g>
          <polygon class="cls-2" points="237.73 542.22 244.08 542.22 244.08 536.9 237.73 536.9 237.73 530.89 245.28 530.89 245.28 525.68 231.8 525.68 231.8 554.37 245.51 554.37 245.51 549.08 237.73 549.08 237.73 542.22"/>
          <path class="cls-2" d="M261.11,538.83l-3.8-3.08c-1.47-1.23-2.09-2-2.09-3.55v-.19c0-1.46.66-2.08,2.05-2.08,1.32,0,1.94.65,1.94,2.2v2.43h5.81v-3.35c0-3.78-2.28-5.86-7.32-5.86h-.89c-5.15,0-7.67,2.27-7.67,6.63v.81c0,3.32,1.36,5.28,3.87,7.29l3.8,3.05c1.51,1.23,2.17,2.12,2.17,3.89v.31c0,1.62-.7,2.47-2.05,2.47s-2.13-.73-2.13-2.12v-3.51h-5.89v4.36c0,3.82,2.4,6.21,7.55,6.21h.93c5.69,0,7.94-3.24,7.94-7.32v-.81c0-3.66-1.39-5.44-4.22-7.75Z"/>
          <polygon class="cls-2" points="282.87 525.68 267.65 525.68 267.65 530.89 272.26 530.89 272.26 554.37 278.26 554.37 278.26 530.89 282.87 530.89 282.87 525.68"/>
          <rect class="cls-2" x="282.52" y="547.93" width="6.12" height="6.44"/>
          <path class="cls-2" d="M307.14,549.47h-5.5c0-.85.62-2.2,3.87-5.51,1.16-1.19,2.48-2.51,3.56-3.7,2.32-2.54,3.25-4.51,3.25-7.79v-.42c0-4.16-1.98-6.67-7.63-6.67h-.85c-5.23,0-6.97,2.74-6.97,6.32v3.89h5.62v-3.24c0-1.5.5-2.2,1.82-2.2s1.82.66,1.82,2.2v.39c0,1.85-.62,2.85-2.32,4.97-.89,1.12-2.17,2.66-3.1,3.78-3.91,4.7-4.49,6.82-4.49,10.14v2.74h16.46v-9.44h-5.54v4.55Z"/>
          <path class="cls-2" d="M325.07,525.34h-1.05c-5.46,0-7.75,2.93-7.75,7.98v13.53c0,5.13,2.52,7.9,7.78,7.9h1.01c5.03,0,7.75-2.7,7.75-7.9v-13.53c0-5.01-2.25-7.98-7.75-7.98ZM326.65,546.77c0,1.73-.62,2.74-2.09,2.74s-2.13-1-2.13-2.74v-13.45c0-1.93.66-2.78,2.09-2.78s2.13.85,2.13,2.78v13.45Z"/>
          <path class="cls-2" d="M346.98,549.47h-5.5c0-.85.62-2.2,3.87-5.51,1.16-1.19,2.48-2.51,3.56-3.7,2.32-2.54,3.25-4.51,3.25-7.79v-.42c0-4.16-1.98-6.67-7.63-6.67h-.85c-5.23,0-6.97,2.74-6.97,6.32v3.89h5.62v-3.24c0-1.5.5-2.2,1.82-2.2s1.82.66,1.82,2.2v.39c0,1.85-.62,2.85-2.32,4.97-.89,1.12-2.17,2.66-3.1,3.78-3.91,4.7-4.49,6.82-4.49,10.14v2.74h16.46v-9.44h-5.54v4.55Z"/>
          <path class="cls-2" d="M368.31,543.07v-17.54h-6c-1.9,4.63-5.93,13.65-7.98,18.08v4.51h8.17v6.25h5.81v-6.25h3.29v-5.05h-3.29ZM362.5,543.07h-4.07l4.07-9.56v9.56Z"/>
        </g>
        <g>
          <path class="cls-2" d="M227.42,466.45s-.09-.04-.14-.06c.82-.57,1.5-1.28,2.05-2.1.79-1.2,1.19-2.66,1.19-4.34,0-2.51-1.01-4.54-3.01-6.04-1.95-1.46-4.79-2.21-8.43-2.21h-14.5v30.78h15.35c3.92,0,6.93-.75,8.95-2.22,2.07-1.51,3.12-3.65,3.12-6.36,0-1.82-.41-3.37-1.23-4.62-.81-1.24-1.94-2.19-3.36-2.84ZM222.6,463.31c-.96.62-2.36.94-4.15.94h-7.33v-7.21h7.33c1.79,0,3.19.32,4.15.94.91.59,1.35,1.46,1.35,2.69s-.44,2.06-1.35,2.64ZM211.12,469.55h8.48c1.94,0,3.44.33,4.46.97.96.6,1.43,1.53,1.43,2.83s-.46,2.26-1.42,2.85h0c-1.02.63-2.52.95-4.46.95h-8.48v-7.59Z"/>
          <path class="cls-2" d="M258.19,468.79c0,2.92-.61,5.05-1.82,6.34-1.2,1.28-2.95,1.93-5.21,1.93s-4.02-.65-5.23-1.93c-1.22-1.29-1.84-3.42-1.84-6.34v-17.09h-6.53v17.26c0,4.48,1.22,7.97,3.61,10.35,2.4,2.38,5.73,3.59,9.9,3.59s7.55-1.21,9.95-3.59c2.4-2.38,3.61-5.87,3.61-10.35v-17.26h-6.45v17.09Z"/>
          <path class="cls-2" d="M296.59,468.69c1.07-1.63,1.61-3.62,1.61-5.89s-.54-4.31-1.61-5.97c-1.07-1.66-2.61-2.95-4.58-3.82-1.94-.86-4.29-1.3-6.99-1.3h-12.75v30.78h6.53v-8.68h6.22c.31,0,.61,0,.91-.02l6.06,8.7h7.18l-7.04-10.05c1.91-.88,3.41-2.14,4.46-3.75ZM291.63,462.8c0,1.73-.55,3.04-1.67,4h0c-1.13.97-2.88,1.46-5.19,1.46h-5.97v-10.87h5.97c2.31,0,4.05.48,5.19,1.44,1.12.94,1.67,2.25,1.67,3.98Z"/>
          <path class="cls-2" d="M312.63,459.92c.91-.88,2.01-1.58,3.26-2.06,1.25-.49,2.66-.73,4.18-.73s2.98.27,4.26.79c1.28.52,2.49,1.35,3.6,2.46l.35.35,4.18-4.08-.31-.36c-1.44-1.64-3.22-2.9-5.32-3.75-2.08-.84-4.43-1.27-6.97-1.27s-4.67.39-6.67,1.16c-2,.77-3.77,1.89-5.27,3.32-1.5,1.43-2.68,3.12-3.5,5.01-.82,1.9-1.23,4.03-1.23,6.32s.41,4.43,1.23,6.32c.82,1.9,1.99,3.58,3.47,5.01,1.49,1.43,3.25,2.55,5.25,3.32,1.99.77,4.21,1.16,6.58,1.16,2.17,0,4.32-.33,6.4-.98,2.09-.65,3.95-1.64,5.53-2.92l.18-.15v-12.56h-6.19v9.42c-.51.28-1.02.5-1.51.67-2.74.93-5.88.88-8.27-.06-1.24-.48-2.33-1.18-3.24-2.06-.91-.88-1.63-1.95-2.14-3.17-.51-1.22-.77-2.57-.77-4s.26-2.81.77-4.02c.51-1.21,1.23-2.27,2.14-3.15Z"/>
          <polygon class="cls-2" points="346.03 469.64 360.41 469.64 360.41 464.08 346.03 464.08 346.03 457.38 362.24 457.38 362.24 451.7 339.5 451.7 339.5 482.48 362.83 482.48 362.83 476.8 346.03 476.8 346.03 469.64"/>
          <path class="cls-2" d="M388.75,472.43c1.91-.88,3.41-2.14,4.46-3.75,1.07-1.64,1.61-3.62,1.61-5.89s-.54-4.31-1.61-5.97c-1.07-1.66-2.61-2.95-4.58-3.82-1.94-.86-4.29-1.3-6.99-1.3h-12.75v30.78h6.53v-8.68h6.22c.31,0,.61,0,.91-.02l6.06,8.7h7.18l-7.04-10.05ZM388.25,462.8c0,1.73-.55,3.04-1.67,4-1.13.97-2.88,1.46-5.19,1.46h-5.97v-10.87h5.97c2.31,0,4.05.48,5.19,1.44,1.12.94,1.67,2.25,1.67,3.98Z"/>
        </g>
      </g>
    </g>
  </g>
</svg>